<svg width="457" height="419" viewBox="0 0 457 419" fill="none" xmlns="http://www.w3.org/2000/svg">
<path d="M257.792 408.198C257.792 413.868 241.462 418.503 221.343 418.503C201.223 418.503 184.866 413.868 184.866 408.198C184.866 402.527 201.196 397.865 221.343 397.865C241.489 397.865 257.792 402.5 257.792 408.198Z" fill="#CACACA"/>
<path d="M184.866 390.777C184.866 396.475 147.135 401.082 100.543 401.082C53.952 401.082 16.2483 396.475 16.2483 390.777C16.2483 385.08 53.9793 380.472 100.543 380.472C147.107 380.472 184.866 385.08 184.866 390.777Z" fill="#CACACA"/>
<path d="M362.289 390.777C362.289 396.475 342.769 401.082 318.669 401.082C294.569 401.082 275.022 396.475 275.022 390.777C275.022 385.08 294.569 380.472 318.669 380.472C342.769 380.472 362.289 385.08 362.289 390.777Z" fill="#CACACA"/>
<path d="M167.091 89.938C167.053 89.9341 167.017 89.9223 166.984 89.9035C166.951 89.8848 166.922 89.8594 166.9 89.8289C166.861 89.7764 166.843 89.7117 166.848 89.6467C166.853 89.5816 166.881 89.5205 166.927 89.4745C166.982 89.4745 170.144 87.0752 174.534 89.2018C174.565 89.2129 174.594 89.2309 174.617 89.2546C174.641 89.2784 174.658 89.3071 174.669 89.3387C174.679 89.3703 174.682 89.4038 174.678 89.4368C174.673 89.4698 174.662 89.5014 174.643 89.529C174.614 89.5866 174.563 89.6303 174.502 89.6507C174.441 89.6711 174.374 89.6666 174.316 89.6381C170.226 87.6477 167.363 89.7744 167.227 89.8835L167.091 89.938Z" fill="#4DA2DF"/>
<path d="M236.5 344.977C146.262 297.813 115.483 248.959 105.696 215.753H163.656C163.319 220.986 161.78 226.071 159.157 230.611C158.067 232.426 157.41 234.468 157.239 236.579C157.068 238.689 157.387 240.81 158.171 242.777C158.955 244.744 160.183 246.503 161.76 247.917C163.336 249.33 165.217 250.361 167.257 250.928C169.297 251.494 171.441 251.582 173.52 251.183C175.599 250.785 177.559 249.911 179.245 248.631C180.931 247.35 182.298 245.697 183.24 243.801C184.182 241.905 184.673 239.817 184.675 237.7C184.676 235.194 183.998 232.735 182.712 230.584C180.086 226.055 178.546 220.978 178.214 215.753H236.5V269.76L237.564 269.678C242.769 269.198 247.81 267.598 252.34 264.989C253.893 264.043 255.645 263.47 257.457 263.315C259.269 263.159 261.093 263.426 262.785 264.093C264.477 264.76 265.991 265.81 267.209 267.161C268.427 268.511 269.316 270.125 269.806 271.877C270.296 273.629 270.373 275.47 270.032 277.256C269.692 279.043 268.941 280.726 267.841 282.174C266.741 283.623 265.32 284.796 263.69 285.603C262.06 286.41 260.265 286.829 258.447 286.826C256.303 286.835 254.199 286.25 252.367 285.136C247.831 282.518 242.78 280.918 237.564 280.447L236.5 280.365V344.977Z" fill="#4B83C7"/>
<path d="M238.463 282.519C243.011 283.056 247.4 284.522 251.358 286.826C253.444 288.082 255.826 288.76 258.26 288.793C260.695 288.826 263.094 288.211 265.213 287.012C267.331 285.813 269.093 284.072 270.318 281.968C271.543 279.864 272.188 277.473 272.185 275.038C272.182 272.604 271.532 270.214 270.302 268.113C269.072 266.012 267.306 264.275 265.185 263.081C263.063 261.887 260.663 261.277 258.228 261.316C255.794 261.354 253.414 262.038 251.331 263.299C247.379 265.594 243.001 267.06 238.463 267.606V215.753H307.11V214.826C307.332 208.124 305.669 201.493 302.311 195.688C301.181 193.853 300.586 191.737 300.594 189.582C300.594 186.458 301.835 183.462 304.043 181.254C306.252 179.045 309.248 177.804 312.371 177.804C315.495 177.804 318.49 179.045 320.699 181.254C322.908 183.462 324.149 186.458 324.149 189.582C324.157 191.725 323.572 193.829 322.458 195.661C319.083 201.47 317.411 208.112 317.633 214.826V215.753H369.213C359.426 248.959 328.647 297.813 238.409 344.977L238.463 282.519Z" fill="#7AC8F5"/>
<path d="M238.218 345.385V282.246H238.491C243.067 282.788 247.484 284.264 251.467 286.581C253.517 287.831 255.863 288.512 258.264 288.555C260.665 288.598 263.033 288.001 265.127 286.826C267.22 285.65 268.963 283.938 270.176 281.866C271.389 279.794 272.028 277.436 272.028 275.035C272.028 272.634 271.389 270.276 270.176 268.204C268.963 266.132 267.22 264.42 265.127 263.245C263.033 262.069 260.665 261.472 258.264 261.515C255.863 261.558 253.517 262.24 251.467 263.49C247.478 265.795 243.064 267.269 238.491 267.824H238.218V215.508H306.864V214.799C307.075 208.144 305.423 201.563 302.093 195.797C301.13 194.21 300.548 192.422 300.391 190.573C300.235 188.723 300.509 186.862 301.192 185.136C301.875 183.41 302.948 181.866 304.327 180.624C305.707 179.382 307.355 178.477 309.143 177.978C310.931 177.48 312.81 177.402 314.633 177.752C316.456 178.101 318.174 178.867 319.651 179.991C321.128 181.115 322.325 182.566 323.148 184.23C323.971 185.894 324.397 187.725 324.394 189.581C324.39 191.77 323.797 193.917 322.676 195.797C319.327 201.556 317.664 208.141 317.878 214.799V215.508H369.54L369.459 215.835C359.753 248.713 329.165 297.84 238.518 345.195L238.218 345.385ZM238.709 282.791V344.568C328.62 297.486 359.181 248.741 368.941 215.999H317.469L317.415 214.826C317.203 208.075 318.884 201.398 322.268 195.552C323.325 193.803 323.898 191.804 323.929 189.76C323.96 187.716 323.447 185.701 322.443 183.921C321.439 182.141 319.98 180.659 318.215 179.628C316.45 178.597 314.443 178.054 312.399 178.054C310.355 178.054 308.347 178.597 306.582 179.628C304.817 180.659 303.358 182.141 302.354 183.921C301.35 185.701 300.837 187.716 300.868 189.76C300.899 191.804 301.472 193.803 302.53 195.552C305.926 201.393 307.608 208.073 307.382 214.826L307.328 215.999H238.709V267.333C243.121 266.763 247.376 265.317 251.222 263.081C253.347 261.792 255.777 261.092 258.262 261.051C260.747 261.011 263.198 261.633 265.363 262.852C267.529 264.072 269.331 265.845 270.586 267.991C271.84 270.136 272.501 272.577 272.501 275.062C272.501 277.548 271.84 279.988 270.586 282.134C269.331 284.28 267.529 286.053 265.363 287.273C263.198 288.492 260.747 289.113 258.262 289.073C255.777 289.033 253.347 288.333 251.222 287.044C247.381 284.796 243.124 283.349 238.709 282.791Z" fill="#96D9C9"/>
<path d="M170.935 249.477C167.813 249.47 164.822 248.227 162.615 246.019C160.408 243.812 159.164 240.821 159.157 237.7C159.162 235.549 159.746 233.44 160.847 231.593C163.816 226.488 165.474 220.728 165.673 214.827V213.791H105.123C102.624 204.797 101.34 195.509 101.307 186.174C101.307 165.018 107.986 145.253 120.145 130.504C132.658 115.292 149.97 106.922 168.89 106.922C192.117 106.922 209.293 116.6 219.598 124.725C229.903 132.849 235.519 140.891 236.5 142.336V167.308C232.36 166.671 228.375 165.265 224.75 163.164C222.664 161.909 220.283 161.23 217.848 161.197C215.414 161.165 213.015 161.78 210.896 162.979C208.777 164.178 207.015 165.918 205.79 168.022C204.565 170.126 203.921 172.518 203.924 174.952C203.927 177.387 204.576 179.777 205.806 181.878C207.036 183.979 208.802 185.715 210.924 186.91C213.045 188.104 215.446 188.713 217.88 188.675C220.314 188.637 222.695 187.952 224.778 186.692C228.396 184.599 232.37 183.194 236.5 182.548V213.791H176.169V214.827C176.368 220.728 178.025 226.488 180.994 231.593C182.069 233.382 182.65 235.423 182.679 237.51C182.708 239.597 182.183 241.654 181.158 243.472C180.132 245.289 178.644 246.803 176.843 247.858C175.042 248.913 172.994 249.471 170.907 249.477H170.935Z" fill="#003256"/>
<path d="M169.217 101.715C166.464 102.151 166.627 102.615 166.245 102.642C165.864 102.669 160.848 100.216 160.848 100.216C160.848 100.216 146.044 92.9367 145.253 92.5005L134.567 79.1147L126.361 82.9042C126.361 82.9042 138.356 97.1351 139.119 97.7622C139.883 98.3892 161.093 105.805 162.947 106.513C162.947 106.513 164.801 108.204 166 109.24C167.2 110.276 168.808 110.657 169.19 110.903C170.228 111.419 171.327 111.804 172.461 112.048C174.07 112.402 172.734 111.312 172.734 111.312C172.734 111.312 169.871 110.085 170.008 109.867C170.144 109.649 171.643 110.466 173.415 110.875L174.751 111.175C175.842 111.393 176.332 110.766 175.215 110.33C174.715 110.138 174.206 109.974 173.688 109.839C173.209 109.7 172.744 109.518 172.298 109.294C171.425 108.967 170.798 108.749 170.853 108.722C170.907 108.694 170.771 108.503 171.262 108.585C171.752 108.667 173.034 109.24 173.906 109.321L175.46 109.567C175.46 109.567 177.287 109.758 177.314 109.485C177.341 109.212 176.196 108.613 175.515 108.64C175.012 108.458 174.491 108.33 173.961 108.258C173.961 108.258 171.834 107.413 171.971 107.086C172.107 106.759 173.306 107.168 174.669 107.249C176.033 107.331 177.178 107.358 177.232 107.086C177.287 106.813 176.223 106.459 176.223 106.459C176.223 106.459 175.187 106.323 174.86 106.241C174.533 106.159 173.334 105.805 173.334 105.805C173.334 105.805 169.408 104.36 169.571 104.087C169.735 103.814 170.362 103.187 170.635 103.187C170.907 103.187 171.398 103.46 171.671 103.46C171.943 103.46 172.543 103.405 172.57 103.078C172.598 102.751 171.098 102.015 171.098 102.015C171.098 102.015 170.035 101.579 169.217 101.715Z" fill="#EFAC7F"/>
<path d="M142.009 87.4026C142.009 87.4026 139.338 89.8289 138.247 90.6195C137.157 91.4101 132.822 93.4275 132.822 93.4275C132.822 93.4275 128.351 86.6119 126.415 83.1769C124.043 79.033 122.408 72.8717 122.953 72.7082C124.534 72.2447 126.688 71.9448 128.678 72.8718C135.603 76.0342 142.009 87.4026 142.009 87.4026Z" fill="#4B83C7"/>
<path d="M166.627 105.259C167.827 105.45 169.026 105.232 169.572 104.142C169.681 105.423 167.718 106.077 166.627 105.259Z" fill="#FE9977"/>
<path d="M98.417 191.381L98.1171 196.616C98.008 197.298 97.5718 198.933 97.5718 199.533C97.5718 201.796 107.633 197.597 105.397 196.616C105.179 196.507 104.115 195.825 104.034 195.062C103.952 193.862 103.679 191.463 103.679 191.463L98.417 191.381Z" fill="#EFAC7F"/>
<path d="M105.369 196.588C105.369 196.588 102.997 197.27 101.797 197.46C100.598 197.651 98.9895 196.152 98.1171 196.561C97.2447 196.97 97.2174 200.895 97.2174 200.895C97.2174 200.895 109.894 202.013 113.466 200.841C114.883 200.405 110.194 198.196 105.369 196.588Z" fill="white"/>
<path d="M82.2231 191.081C82.2231 191.081 81.9232 196.289 81.9232 196.316C81.8142 196.97 81.3779 198.606 81.3779 199.206C81.3779 201.469 91.4659 197.297 89.2029 196.289C88.9848 196.207 87.5943 195.007 87.5398 194.217C87.4853 193.426 87.4853 191.163 87.4853 191.163L82.2231 191.081Z" fill="#EFAC7F"/>
<path d="M89.175 196.261C88.0013 196.616 86.8091 196.907 85.6036 197.133C84.3768 197.297 82.7956 195.852 81.9232 196.233C81.0508 196.615 80.9418 200.568 80.9418 200.568C80.9418 200.568 93.5369 201.086 97.2719 200.541C98.744 200.323 94.0004 197.869 89.175 196.261Z" fill="white"/>
<path d="M84.4858 108.722C84.4858 108.722 82.7955 117.527 83.4771 124.207C84.1586 130.886 84.2404 154.604 84.2404 154.604L81.5687 192.58L87.8663 192.717C87.8663 192.717 95.3362 154.768 95.1999 155.749C95.0636 156.731 97.708 129.032 97.708 129.032L88.8205 107.904L84.4858 108.722Z" fill="#474747"/>
<path d="M86.8849 103.051C86.8849 103.051 79.1424 111.175 82.0322 120.035C83.1772 123.607 93.9731 157.63 94.1094 160.411C94.2457 163.192 97.7353 193.971 97.7353 193.971L105.069 193.725L106.65 159.538L104.551 113.465L100.107 105.695L86.8849 103.051Z" fill="white"/>
<path d="M133.831 76.7158C131.295 73.8805 125.788 69.7912 125.788 69.7912C125.788 69.7912 122.517 66.9832 121.154 66.5197C119.191 65.8381 115.81 64.0388 110.93 71.4269C107.441 76.6885 85.4127 104.033 81.7869 104.932L105.423 116.219C106.078 110.821 117.746 100.652 119.409 98.771C123.171 94.5181 136.23 79.3602 133.831 76.7158Z" fill="#4DA2DF"/>
<path d="M132.74 65.1565L125.379 69.4639C125.379 69.4639 125.161 75.707 127.56 77.3427C129.959 78.9785 131.132 75.4344 131.132 75.4344C131.132 75.4344 133.858 71.6449 135.93 70.4726C138.002 69.3004 132.74 65.1565 132.74 65.1565Z" fill="#EFAC7F"/>
<path d="M131.486 67.9102C131.87 69.5902 132.514 71.2 133.395 72.6816C134.133 71.8311 134.986 71.0877 135.93 70.4731C136.912 69.9278 136.285 68.7554 135.358 67.6649C134.431 66.5743 132.74 65.1565 132.74 65.1565L131.322 65.9744C131.213 66.5197 131.404 67.474 131.486 67.9102Z" fill="#D7A17D"/>
<path d="M136.557 54.3881C136.448 54.2518 130.396 61.7489 131.132 65.2657C131.868 68.7826 135.548 71.9995 138.084 71.1271C140.619 70.2547 146.126 61.3127 144.245 57.0053C142.364 52.6978 136.557 54.3881 136.557 54.3881Z" fill="#EFAC7F"/>
<path d="M143.182 52.0161C140.537 50.5712 136.257 50.135 133.04 51.8253C129.087 53.8972 128.187 59.0771 129.414 62.2395C130.641 65.4019 129.251 67.2012 129.251 67.2012L131.35 65.9744C131.35 65.9744 132.549 64.0661 132.713 62.5394C132.876 61.0127 135.112 61.3126 136.175 60.6037C137.238 59.8949 138.084 58.3682 139.447 57.4686C139.447 57.4686 142.854 57.0596 144.517 57.9866C147.38 59.5678 146.971 54.1153 143.182 52.0161Z" fill="#743810"/>
<path d="M154.877 112.756C151.987 112.429 151.987 112.647 151.606 112.593C151.224 112.538 146.698 108.667 146.698 108.667C146.698 108.667 133.367 97.4078 132.686 96.7535L125.379 80.6143L115.728 82.0592C115.728 82.0592 124.725 101.034 125.352 101.852C125.979 102.669 145.717 114.201 147.434 115.428C147.434 115.428 148.934 117.582 149.915 118.945C150.897 120.308 152.451 121.126 152.778 121.453C153.698 122.257 154.715 122.944 155.804 123.498C157.358 124.288 156.24 122.844 156.24 122.844C156.24 122.844 153.623 120.853 153.814 120.69C154.005 120.526 155.34 121.726 157.031 122.625L158.312 123.28C159.348 123.825 159.975 123.362 158.966 122.625C158.512 122.276 158.028 121.966 157.521 121.699C157.07 121.425 156.641 121.115 156.24 120.772C155.45 120.199 154.904 119.845 154.959 119.817C155.013 119.79 154.877 119.545 155.368 119.79C155.858 120.036 157.004 120.908 157.876 121.262C158.748 121.617 159.375 121.944 159.375 121.944C159.375 121.944 160.847 122.135 160.902 122.026C160.957 121.917 160.329 121.208 159.621 121.044C159.172 120.717 158.687 120.443 158.176 120.226C158.176 120.226 156.213 118.809 156.404 118.536C156.595 118.263 157.631 119.218 159.048 119.736C160.466 120.254 161.447 120.036 161.584 119.763C161.72 119.49 160.82 119.136 160.82 119.136C160.245 119.006 159.68 118.833 159.13 118.618C158.776 118.427 154.441 115.156 154.632 114.91C154.823 114.665 155.504 114.665 155.777 114.747L156.84 115.101C157.113 115.183 157.603 114.856 157.712 114.529C157.821 114.201 156.785 113.629 156.785 113.629C156.785 113.629 155.695 112.866 154.877 112.756Z" fill="#EFAC7F"/>
<path d="M117.255 89.9107C117.255 89.9107 120.036 89.011 121.808 88.2204C123.007 87.6752 128.187 85.0853 128.187 85.0853C128.187 85.0853 125.952 75.6525 124.452 72.272C118.891 59.8131 112.566 68.4007 111.694 70.3909C109.785 74.8892 117.255 89.9107 117.255 89.9107Z" fill="#7AC8F5"/>
<path d="M319.623 213.791C319.576 207.778 321.148 201.864 324.176 196.67C325.431 194.584 326.11 192.202 326.143 189.768C326.175 187.333 325.561 184.934 324.362 182.815C323.162 180.697 321.422 178.935 319.318 177.71C317.214 176.485 314.822 175.841 312.388 175.843C309.953 175.846 307.563 176.496 305.462 177.726C303.361 178.956 301.625 180.722 300.431 182.843C299.236 184.965 298.627 187.365 298.665 189.8C298.704 192.234 299.388 194.614 300.648 196.697C303.654 201.891 305.225 207.79 305.201 213.791H238.463V180.312L237.373 180.449C232.575 181.022 227.945 182.572 223.769 185.002C222.215 185.938 220.465 186.503 218.656 186.652C216.848 186.801 215.029 186.53 213.343 185.86C211.656 185.19 210.147 184.14 208.934 182.791C207.72 181.442 206.835 179.83 206.346 178.083C205.858 176.335 205.781 174.498 206.12 172.715C206.458 170.932 207.205 169.252 208.3 167.805C209.395 166.359 210.81 165.185 212.434 164.375C214.058 163.565 215.847 163.141 217.662 163.137C219.808 163.138 221.912 163.733 223.742 164.855C227.93 167.28 232.567 168.829 237.373 169.408L238.463 169.544V142.336C239.445 140.891 245.17 132.74 255.366 124.725C265.562 116.71 282.873 106.922 306.074 106.922C324.994 106.922 342.332 115.292 354.846 130.504C366.978 145.253 373.684 165.018 373.684 186.174C373.641 195.51 372.348 204.798 369.84 213.791H319.623Z" fill="white"/>
<path d="M370.249 257.383H350.266C349.791 257.376 349.337 257.184 349.001 256.848C348.665 256.512 348.474 256.058 348.467 255.583C348.474 255.108 348.665 254.655 349.001 254.319C349.337 253.983 349.791 253.791 350.266 253.784H370.249C370.726 253.784 371.184 253.974 371.521 254.311C371.859 254.649 372.048 255.106 372.048 255.583C372.048 256.061 371.859 256.518 371.521 256.856C371.184 257.193 370.726 257.383 370.249 257.383Z" fill="#8A86DC"/>
<path d="M372.212 260.218H348.303C347.828 260.211 347.374 260.019 347.038 259.683C346.703 259.348 346.511 258.894 346.504 258.419C346.511 257.944 346.703 257.49 347.038 257.154C347.374 256.819 347.828 256.627 348.303 256.62H372.212C372.689 256.62 373.147 256.809 373.484 257.147C373.822 257.484 374.011 257.942 374.011 258.419C374.011 258.896 373.822 259.354 373.484 259.691C373.147 260.029 372.689 260.218 372.212 260.218Z" fill="white"/>
<path d="M302.093 379.545C302.093 379.545 300.24 381.372 300.212 382.026C300.185 382.68 300.049 389.85 300.785 390.532C301.521 391.213 303.756 391.677 303.048 392.413C302.339 393.149 298.386 392.876 295.632 392.713C294.842 392.686 293.833 386.224 293.533 385.27C293.07 383.88 291.407 380.881 291.815 379.927C292.034 379.463 293.533 378.4 294.923 377.501C296.314 376.601 297.731 374.447 297.731 374.447L302.093 379.545Z" fill="#EFAC7F"/>
<path d="M326.711 384.016L325.075 388.733C324.939 389.496 324.476 391.35 324.476 392.031C324.476 394.567 335.817 389.85 333.281 388.733C333.036 388.624 332.327 387.806 332.245 386.933C332.136 385.597 333.2 383.907 333.2 383.907L326.711 384.016Z" fill="#EFAC7F"/>
<path d="M342.387 294.432L346.504 305.065C346.504 305.065 349.175 330.5 347.621 345.713C346.967 352.065 332.818 386.143 332.818 386.143L325.812 385.134L335.217 344.786L331.755 329.383L326.847 298.876L342.387 294.432Z" fill="#474747"/>
<path d="M323.031 294.978L319.487 306.837L314.116 342.632L295.987 376.11C295.987 376.11 298.713 380.308 301.63 380.963L327.393 347.13L341.351 304.765L340.86 295.359L323.031 294.978Z" fill="white"/>
<path d="M377.174 275.24C375.075 276.194 375.293 276.603 375.02 276.712C374.747 276.821 370.249 275.431 370.249 275.431L356.4 271.123L345.386 260.464L339.579 265.643C339.579 265.643 351.82 276.821 352.556 277.284C353.292 277.748 371.503 280.692 373.112 281.019C373.112 281.019 374.911 282.273 376.056 283.01C377.201 283.746 378.564 283.827 378.919 283.964C379.825 284.263 380.772 284.419 381.727 284.427C383.062 284.427 381.808 283.664 381.808 283.664C381.808 283.664 379.3 283.064 379.355 282.846C379.409 282.628 380.772 283.064 382.272 283.119H383.362C384.289 283.119 384.562 282.437 383.58 282.246C383.151 282.146 382.713 282.092 382.272 282.083C381.865 282.027 381.463 281.935 381.072 281.81C380.336 281.674 379.791 281.592 379.818 281.537C379.846 281.483 379.709 281.347 380.118 281.347C380.527 281.347 381.645 281.619 382.354 281.537C383.062 281.456 383.635 281.483 383.635 281.483C383.635 281.483 385.025 281.237 385.025 281.156C385.08 280.61 384.044 280.42 383.499 280.556C383.066 280.489 382.627 280.471 382.19 280.501C382.19 280.501 380.363 280.12 380.391 279.793C380.418 279.465 384.998 279.411 384.998 278.866C384.998 278.32 383.635 278.375 383.635 278.375L382.517 278.429C382.19 278.429 381.236 278.293 381.236 278.293C381.236 278.293 377.855 277.693 377.91 277.393C377.964 277.094 378.373 276.385 378.591 276.33C378.81 276.276 379.246 276.467 379.464 276.412C379.6 276.36 379.716 276.266 379.794 276.143C379.873 276.02 379.91 275.876 379.9 275.731C379.873 275.376 378.728 275.131 378.728 275.131C378.728 275.131 377.801 274.967 377.174 275.24Z" fill="#F8A592"/>
<path d="M349.339 263.163L343.832 270.66C343.832 270.66 338.952 264.826 336.744 261.881C334.099 258.31 331.182 253.375 331.591 253.103C332.818 252.367 334.345 251.576 336.117 252.04C342.278 253.621 349.339 263.163 349.339 263.163Z" fill="#4B83C7"/>
<path d="M295.005 377.446C295.005 377.446 298.876 389.333 300.539 389.905C300.976 390.069 303.456 390.696 303.865 391.65V391.732C303.889 391.873 303.882 392.019 303.843 392.158C303.805 392.296 303.737 392.425 303.643 392.534C303.549 392.643 303.433 392.731 303.302 392.79C303.17 392.849 303.028 392.879 302.884 392.877H294.978C294.978 392.877 293.86 387.533 293.424 385.189C293.424 385.189 291.079 379.464 291.352 378.946C291.625 378.428 295.005 377.446 295.005 377.446Z" fill="#474747"/>
<path d="M323.822 392.849L325.076 388.705C325.076 388.705 327.856 389.878 329.219 389.687C330.583 389.496 333.254 388.705 333.254 388.705C338.707 390.505 343.178 391.404 342.36 392.849H323.822Z" fill="#474747"/>
<path d="M375.511 278.866C376.004 278.864 376.488 278.729 376.91 278.475C377.333 278.22 377.678 277.856 377.91 277.421C377.692 278.784 376.383 279.356 375.511 278.866Z" fill="#FE9977"/>
<path d="M324.421 251.794C324.421 251.794 317.851 252.503 315.643 253.266C313.435 254.03 311.308 259.946 311.308 259.946C311.308 259.946 321.286 288.816 320.904 293.969C320.523 299.122 319.405 306.782 319.405 306.782C319.405 306.782 339.061 308.009 346.504 305.065C346.504 305.065 344.159 293.369 344.159 290.316C344.159 287.262 342.823 256.538 341.896 254.929C340.969 253.321 339.061 252.421 335.463 251.631C331.864 250.84 324.421 251.794 324.421 251.794Z" fill="#4DA2DF"/>
<path d="M325.73 243.206L324.421 251.794C324.421 251.794 328.374 256.347 331.237 255.474C333.636 254.738 333.009 251.358 333.009 251.358C333.009 251.358 331.7 246.505 332.082 244.052C332.464 241.598 325.73 243.206 325.73 243.206Z" fill="#EFAC7F"/>
<path d="M332.083 244.052C332.491 241.625 325.73 243.207 325.73 243.207L325.621 243.915C325.802 244.351 326.05 244.756 326.357 245.115C327.921 246.705 330.02 247.657 332.246 247.787C332.055 246.451 331.919 245.061 332.083 244.052Z" fill="#D7A17D"/>
<path d="M324.639 231.075C324.448 230.993 323.113 240.835 325.648 243.561C328.183 246.287 333.118 247.159 334.89 245.033C336.662 242.907 336.744 232.056 332.818 229.275C328.892 226.495 324.639 231.075 324.639 231.075Z" fill="#EFAC7F"/>
<path d="M331.319 224.014C329.111 224.473 327.101 225.607 325.566 227.258C324.176 227.422 322.295 228.185 320.359 231.375C317.96 235.301 319.732 239.663 322.513 241.789C325.294 243.916 325.266 246.396 325.266 246.396L325.703 245.115C326.029 244.151 326.141 243.128 326.03 242.116C325.982 241.497 325.834 240.89 325.594 240.317C324.912 238.899 327.038 237.945 327.611 236.746C328.183 235.546 328.102 233.747 328.811 232.247L329.656 231.075C329.656 231.075 331.646 229.548 333.581 229.985C335.517 230.421 335.217 223.223 331.319 224.014Z" fill="#D7D7D7"/>
<path d="M327.502 238.518C327.502 239.717 326.957 240.699 326.248 240.699C325.539 240.699 324.967 239.745 324.967 238.545C324.967 237.345 325.485 236.364 326.193 236.336C326.902 236.309 327.475 237.291 327.502 238.518Z" fill="#EFAC7F"/>
<path d="M336.389 293.505H376.083V259.07H336.389V293.505Z" fill="#063D65"/>
<path d="M361.089 293.505H395.521V259.07H361.089V293.505Z" fill="#003256"/>
<path d="M360.435 292.769C358.417 292.197 335.19 286.254 334.317 285.681C333.445 285.109 319.105 271.696 319.105 271.696L327.311 267.361L340.151 280.011L357.463 286.608C357.463 286.608 362.507 288.68 362.943 288.571C363.379 288.462 363.624 288.189 366.487 287.535C367.305 287.344 368.477 287.698 368.477 287.698C368.477 287.698 369.922 288.135 369.922 288.489C369.909 288.656 369.835 288.812 369.714 288.927C369.593 289.043 369.435 289.11 369.268 289.116C368.968 289.143 368.422 288.898 368.123 288.925C367.823 288.953 367.223 289.58 367.114 289.879C367.005 290.179 371.121 293.042 371.312 293.424C371.503 293.805 376.274 293.205 376.083 293.505C375.892 293.805 375.511 293.86 375.511 293.942C375.429 295.277 368.504 296.259 368.041 296.123C367.577 295.986 360.435 292.769 360.435 292.769Z" fill="#EFAC7F"/>
<path d="M323.522 277.857L332.927 271.696C332.927 271.696 322.049 255.175 318.314 253.484C315.752 252.312 312.562 254.084 311.308 258.419C310.054 262.754 323.522 277.857 323.522 277.857Z" fill="#4B83C7"/>
<path d="M303.702 29.1975C302.284 31.6239 299.749 31.5148 297.023 32.1964C295.196 32.6598 294.051 35.6587 294.242 37.9487C294.678 43.7011 290.153 42.7196 286.527 45.1187C277.803 50.8438 283.419 65.7563 292.961 66.7104C294.869 66.9013 297.023 66.6014 298.713 65.6472C300.403 64.693 301.03 63.9024 302.557 63.3572C305.774 62.2394 309.345 61.8305 311.908 59.3769C315.588 55.8328 312.535 54.1153 313.489 51.5526C314.443 48.99 318.505 50.2713 319.296 44.9551C320.141 39.2028 319.214 34.2138 317.088 31.3785C313.571 26.6349 307.41 26.3077 305.147 27.7526C304.556 28.1105 304.06 28.6063 303.702 29.1975Z" fill="#474747"/>
<path d="M343.696 39.9934C343.341 39.2846 340.342 41.4111 339.661 41.0022C338.979 40.5932 342.36 37.2127 342.005 36.6129C341.378 35.5224 338.107 40.1025 337.78 39.6118C337.453 39.1211 340.615 34.2411 339.497 33.9685C338.379 33.6959 336.744 39.3937 336.171 39.012C335.599 38.6303 338.134 33.8594 337.044 32.9053C336.471 32.3873 333.718 41.6292 332.736 42.0109C331.755 42.3925 330.61 38.3577 329.683 38.5213C328.756 38.6849 332.736 45.9366 332.545 46.5091C332.355 47.0816 328.674 58.968 326.52 62.5394L322.731 60.6855C322.24 63.439 322.186 66.3288 321.531 69.0278C325.757 70.8816 329.492 72.2175 330.719 71.7813C334.454 70.3909 336.28 52.3433 336.88 48.9627C337.48 45.5822 339.061 44.9279 339.988 43.1559C340.915 41.3838 344.023 40.7295 343.696 39.9934Z" fill="#EFAC7F"/>
<path d="M312.562 55.2329L306.346 61.5032C306.346 61.5032 314.552 65.9742 321.531 69.0276C322.186 66.3287 322.24 63.4389 322.731 60.6854C316.951 57.7683 312.562 55.2329 312.562 55.2329Z" fill="#8A86DC"/>
<path d="M351.411 124.997C353.258 127.183 354.909 129.528 356.345 132.004C356.454 132.194 356.482 133.339 356.591 133.558C360.844 136.338 365.342 135.575 369.05 134.43C366.623 133.367 363.215 132.14 362.916 131.622C360.866 128.802 359.112 125.778 357.681 122.598C355.773 124.479 354.001 124.261 351.411 124.997Z" fill="#EFAC7F"/>
<path d="M356.4 132.14C356.018 133.83 356.182 137.293 356.509 137.374C356.836 137.456 371.176 139.555 373.003 137.729C374.12 136.638 372.048 135.793 369.05 134.43C365.342 135.575 356.536 133.285 356.4 132.14Z" fill="#4DA2DF"/>
<path d="M352.638 137.865C354.478 140.057 356.129 142.4 357.572 144.872C357.654 145.062 357.708 146.207 357.818 146.426C362.07 149.234 366.569 148.443 370.249 147.298C367.823 146.235 364.442 145.008 364.115 144.517C363.788 144.026 361.307 140.755 358.908 135.466C357 137.374 355.2 137.156 352.638 137.865Z" fill="#EFAC7F"/>
<path d="M357.599 145.035C357.245 146.725 357.381 150.16 357.708 150.242C358.036 150.324 372.403 152.45 374.229 150.596C375.32 149.506 373.248 148.661 370.249 147.298C366.569 148.443 357.736 146.18 357.599 145.035Z" fill="#4DA2DF"/>
<path d="M359.617 124.834L352.174 127.424L312.235 94.2726C312.235 94.2726 321.968 94.1363 339.443 95.9356C344.677 96.4536 359.617 124.834 359.617 124.834Z" fill="#063D65"/>
<path d="M297.213 91.519C297.213 91.519 296.15 94.3271 296.014 95.8537C295.578 100.788 298.14 107.059 300.894 108.04C303.647 109.021 321.068 113.847 331.509 112.375L354.137 142.554L361.689 139.255L344.023 108.204C344.023 108.204 340.615 102.86 337.807 101.606C334.999 100.352 312.235 94.2725 312.235 94.2725L308.691 89.1472L297.213 91.519Z" fill="#003256"/>
<path d="M315.643 60.2221C314.867 58.794 314.011 57.4105 313.08 56.0782C311.799 53.7609 308.446 52.5886 308.446 52.5886L306.019 52.6704C305.994 52.8352 305.918 52.9878 305.801 53.1066C305.31 53.461 302.53 52.9976 300.73 54.2244C294.733 59.3769 296.396 84.431 296.859 92.337L311.444 92.855C311.444 92.855 312.862 75.4889 316.57 71.127C319.16 68.0736 317.497 63.6571 315.643 60.2221Z" fill="#CACACA"/>
<path d="M307.382 44.1099C307.382 44.1099 306.374 51.3344 305.692 53.0792C305.01 54.824 309.536 58.559 313.353 59.704C317.169 60.849 312.18 55.8327 312.344 53.9789C312.508 52.1251 313.189 43.2375 313.189 43.2375L307.382 44.1099Z" fill="#EFAC7F"/>
<path d="M312.999 45.7732L313.19 43.2375L307.382 44.11C307.382 44.11 307.246 44.9552 307.082 46.1549C309.427 47.5181 311.554 47.1092 312.999 45.7732Z" fill="#D7A17D"/>
<path d="M309.209 30.9694C307.689 31.3786 306.37 32.3286 305.501 33.6411C304.111 35.7948 303.129 42.1469 307.791 45.1185C312.453 48.0901 316.024 43.8917 316.106 39.8024C316.188 35.713 315.288 30.2333 309.209 30.9694Z" fill="#EFAC7F"/>
<path d="M317.17 38.5213C316.761 39.5028 315.97 40.1026 315.397 39.8845C314.825 39.6664 314.689 38.6576 315.07 37.6761C315.452 36.6945 316.27 36.0674 316.842 36.3128C317.415 36.5582 317.551 37.5125 317.17 38.5213Z" fill="#EFAC7F"/>
<path d="M305.447 39.3122C305.774 40.3755 305.474 41.4388 304.738 41.6569C304.002 41.8751 303.184 41.2207 302.829 40.1574C302.475 39.0941 302.802 38.0307 303.538 37.8126C304.275 37.5945 305.092 38.2488 305.447 39.3122Z" fill="#EFAC7F"/>
<path d="M324.667 62.9484C324.667 62.9484 326.248 63.003 326.684 62.9484C329.247 62.7031 328.184 66.4929 328.184 66.4929C328.184 66.4929 326.929 65.2659 326.439 65.2659C326.036 65.2789 325.635 65.3245 325.239 65.4023L324.667 62.9484Z" fill="white"/>
<path d="M333.363 88.2475C333.363 88.2475 334.4 89.8834 335.599 89.1473C336.799 88.4111 338.816 86.9934 339.198 88.0567C339.58 89.12 339.498 90.0198 339.089 90.2379C338.68 90.456 335.626 92.1192 333.963 92.2282C332.3 92.3373 330.937 90.7832 330.937 90.7832L333.363 88.2475Z" fill="#4B83C7"/>
<path d="M335.817 91.9553C335.762 90.674 335.517 89.2291 334.808 88.0023C333.009 84.8671 325.348 76.4158 324.203 75.7615C323.058 75.1072 323.903 72.5718 323.903 72.5718L319.35 70.1182L316.979 68.8369C316.979 68.8369 311.635 77.0156 311.226 77.7789C310.817 78.5423 311.553 81.0777 311.008 82.6316C310.463 84.1856 311.008 92.6369 310.245 93.5638C309.481 94.4907 309.1 94.2454 308.909 94.5998C308.839 94.711 308.804 94.8407 308.809 94.972C308.814 95.1033 308.858 95.2301 308.936 95.3359C309.563 96.0992 312.698 95.4449 312.698 95.4449C312.698 95.4449 314.007 93.5911 313.816 92.5006C313.625 91.4101 314.252 85.167 314.689 85.167C315.125 85.167 316.87 87.9478 317.578 88.493L317.796 88.5748C318.314 88.5748 321.668 89.3382 322.404 90.0742C322.595 90.2651 322.676 90.7831 322.676 91.4646C322.676 92.1462 322.649 92.3915 322.622 92.9095C322.54 93.8364 322.431 94.8179 322.322 95.4449H324.721C325.375 94.2454 326.766 93.4548 328.347 93.4548C329.038 93.4379 329.722 93.5907 330.34 93.8996C330.957 94.2086 331.49 94.6642 331.891 95.2268C333.227 95.1723 333.745 95.8266 334.89 95.7175C334.944 95.3086 335.844 92.4733 335.817 91.9553Z" fill="#4DA2DF"/>
<path d="M325.13 63.3299C324.882 63.0868 324.579 62.9058 324.248 62.8015C323.916 62.6973 323.564 62.6729 323.222 62.7301C322.681 62.8268 322.129 62.8359 321.586 62.7574C319.923 62.6211 318.205 62.7574 317.115 63.8206C316.024 64.8839 315.915 68.7278 317.115 70.5271C318.314 72.3265 321.749 72.7899 322.049 73.6078C322.349 74.4257 325.321 74.8073 325.757 73.8259C325.876 73.8939 326.008 73.9363 326.144 73.9504C326.28 73.9645 326.417 73.9499 326.548 73.9077C327.638 73.5805 328.047 72.49 327.665 71.3178C327.284 70.1455 325.593 67.6919 325.893 65.5109C325.963 65.1124 325.929 64.7029 325.795 64.3212C325.662 63.9394 325.433 63.5982 325.13 63.3299Z" fill="#4B83C7"/>
<path d="M324.448 70.6909C324.353 70.7879 324.297 70.9174 324.292 71.0536C324.287 71.1899 324.333 71.3231 324.421 71.427C324.829 71.9267 325.296 72.3752 325.812 72.763C326.493 73.1174 327.12 71.5361 327.12 70.7999C327.12 70.0638 325.594 69.5185 324.448 70.6909Z" fill="white"/>
<path d="M323.767 82.1954C323.764 82.113 323.744 82.0322 323.709 81.9574C323.675 81.8827 323.625 81.8155 323.565 81.7598C323.504 81.7041 323.433 81.6609 323.355 81.6327C323.278 81.6046 323.195 81.5919 323.113 81.5956H323.086C322.672 81.6284 322.27 81.746 321.903 81.9409C321.537 82.1359 321.215 82.404 320.957 82.7287C320.698 83.0535 320.51 83.4278 320.402 83.8286C320.295 84.2293 320.271 84.6479 320.332 85.0582C320.359 85.1471 320.359 85.242 320.332 85.3309C320.278 85.6308 319.759 86.6668 319.187 87.7302L322.35 88.5209L323.904 85.9307L323.767 82.1954Z" fill="#4B83C7"/>
<path d="M317.742 90.4017C317.742 90.4017 316.542 94.0006 316.188 95.3911C317.17 95.9364 317.742 94.8458 319.951 95.4457C320.005 95.0094 320.768 92.3375 320.768 91.6831C320.768 91.0288 321.75 89.8836 322.513 88.5477C322.536 88.5305 322.553 88.5066 322.562 88.4793C322.57 88.4519 322.57 88.4226 322.561 88.3955C322.552 88.3684 322.535 88.3448 322.511 88.328C322.488 88.3113 322.46 88.3023 322.432 88.3023C321.45 88.0296 320.25 87.5389 319.296 87.2662C319.234 87.2512 319.169 87.2564 319.11 87.2809C319.051 87.3054 319.002 87.348 318.969 87.4026C318.503 88.3779 318.093 89.3793 317.742 90.4017Z" fill="#4B83C7"/>
<path d="M315.288 95.036C315.485 94.684 315.774 94.3932 316.126 94.1959C316.477 93.9986 316.876 93.9025 317.279 93.9182C318.288 93.9182 319.951 95.445 319.951 95.445C319.951 95.445 319.46 95.9358 318.124 95.9358C316.788 95.9358 314.825 96.0176 315.288 95.036Z" fill="#4B83C7"/>
<path d="M321.368 94.8178C321.554 94.4637 321.838 94.1704 322.186 93.9723C322.534 93.7743 322.931 93.6798 323.331 93.6999C323.801 93.754 324.25 93.9225 324.64 94.1907C324.78 94.2926 324.885 94.4351 324.942 94.5989C324.998 94.7628 325.003 94.94 324.956 95.1067C324.908 95.2733 324.81 95.4213 324.676 95.5306C324.541 95.6399 324.376 95.7051 324.203 95.7175H324.176C322.84 95.7175 320.904 95.7993 321.368 94.8178Z" fill="#4B83C7"/>
<path d="M331.019 94.8178C331.319 94.2998 332.164 93.7 333.391 93.7C333.939 93.7444 334.47 93.9122 334.945 94.1907C335.79 94.5997 335.436 95.6903 334.454 95.7176H334.4C332.791 95.7176 330.473 95.7993 331.019 94.8178Z" fill="#4B83C7"/>
<path d="M320.659 64.1206C320.168 63.6299 320.468 63.0574 320.741 62.7302C319.35 62.703 318.015 62.9211 317.115 63.8207C316.215 64.7204 315.915 68.7279 317.115 70.5272C318.314 72.3265 321.095 72.681 321.886 73.3625C322.704 71.9721 321.45 70.7999 321.15 70.1456C320.85 69.4913 322.622 67.8283 322.813 66.4924C323.004 65.1566 321.395 64.8567 320.659 64.1206Z" fill="white"/>
<path d="M318.342 63.0572C317.542 63.2821 316.692 63.2438 315.916 62.9481C314.552 62.4846 313.216 64.8839 313.216 64.8839C313.216 64.8839 314.471 67.5831 315.479 68.2375C316.488 68.8918 318.342 63.0572 318.342 63.0572Z" fill="#4B83C7"/>
<path d="M335.462 86.0395C335.462 85.4397 333.609 83.7222 332.736 83.9948C331.864 84.2674 328.401 86.4484 328.401 86.4484L313.053 82.8498C313.053 82.8498 309.182 73.9896 308.8 66.4106C305.583 66.8468 303.402 67.6374 300.621 69.1914C301.957 76.4432 305.229 88.2205 308.827 90.4287C310.354 91.3556 328.483 89.311 328.483 89.311C328.483 89.311 332.245 89.8289 333.2 89.5836C337.044 88.5204 335.462 87.2663 335.462 86.0395Z" fill="#EFAC7F"/>
<path d="M308.882 58.2866C308.418 55.9966 307.846 53.7065 305.392 52.9704C304.618 52.7653 303.807 52.7473 303.024 52.9179C302.242 53.0886 301.512 53.443 300.894 53.9519C299.422 55.1514 299.04 57.087 299.04 58.8864C299.016 63.0618 299.362 67.2311 300.076 71.3452C302.857 69.7913 306.919 69.9821 310.136 69.5459C310.436 65.8655 309.509 61.2854 308.882 58.2866Z" fill="#828282"/>
<path d="M184.402 45.3915C182.766 54.0064 177.587 72.1631 169.135 71.8904C168.699 60.0313 168.126 49.8625 167.309 46.6456C167.132 45.9872 166.913 45.3407 166.654 44.7099C171.916 45.1734 175.078 37.1583 176.305 31.4877C175.215 35.0864 172.761 40.8387 169.571 42.7471C169.032 43.0979 168.419 43.3177 167.78 43.3887C167.141 43.4597 166.494 43.38 165.891 43.156C162.838 37.4582 157.058 33.6415 154.277 30.2337C152.069 27.5347 153.487 16.6843 154.032 13.2493C153.241 17.2296 152.423 23.091 152.778 27.153C153.187 31.7604 155.559 32.0602 161.011 38.2215C165.373 43.1015 166.872 45.7459 167.036 64.4206C166.641 64.4991 166.239 64.5447 165.836 64.5569C161.365 64.6387 157.276 60.304 155.013 56.5145C156.785 59.9768 159.975 63.8753 163.71 65.0476C164.398 65.2715 165.114 65.4 165.836 65.4293C166.238 65.4292 166.638 65.4019 167.036 65.3475C167.145 66.9832 167.636 99.0709 167.2 119.79C168.508 119.818 168.263 119.191 169.571 119.3C169.517 113.684 169.789 92.6916 169.19 74.2623C179.059 73.8806 183.203 55.6149 184.402 45.3915Z" fill="white"/>
<path d="M148.225 17.0664C150.216 18.675 153.215 18.2661 153.215 18.2661L145.935 12.4314C145.935 12.4314 146.208 15.4578 148.225 17.0664Z" fill="#95A65F"/>
<path d="M145.935 12.4314L153.215 18.2661C153.215 18.2661 152.969 15.2669 150.952 13.6583C148.934 12.0497 145.935 12.4314 145.935 12.4314Z" fill="#ABD782"/>
<path d="M182.058 70.4998C184.62 70.418 186.638 68.1553 186.638 68.1553L177.314 68.5097C177.314 68.5097 179.468 70.6089 182.058 70.4998Z" fill="#95A65F"/>
<path d="M177.314 68.5099L186.638 68.1555C186.638 68.1555 184.457 66.0563 181.894 66.1381C179.331 66.2199 177.314 68.5099 177.314 68.5099Z" fill="#ABD782"/>
<path d="M184.757 61.1221C186.529 59.9769 186.993 57.5776 186.993 57.5776L180.613 61.6946C180.613 61.6946 182.985 62.2672 184.757 61.1221Z" fill="#95A65F"/>
<path d="M180.613 61.6945L186.993 57.5775C186.993 57.5775 184.593 57.0049 182.821 58.15C181.049 59.2952 180.613 61.6945 180.613 61.6945Z" fill="#ABD782"/>
<path d="M175.651 60.7677C176.36 62.7308 178.623 63.7123 178.623 63.7123L175.978 56.5962C175.978 56.5962 174.915 58.8046 175.651 60.7677Z" fill="#95A65F"/>
<path d="M175.978 56.5962L178.623 63.7123C178.623 63.7123 179.686 61.5039 178.977 59.5408C178.268 57.5777 175.978 56.5962 175.978 56.5962Z" fill="#ABD782"/>
<path d="M154.959 22.464C153.378 23.5818 153.051 25.7903 153.051 25.7903L158.749 21.8369C158.749 21.8369 156.54 21.3734 154.959 22.464Z" fill="#95A65F"/>
<path d="M158.749 21.8367L153.051 25.7901C153.051 25.7901 155.259 26.2536 156.813 25.1357C158.367 24.0179 158.749 21.8367 158.749 21.8367Z" fill="#ABD782"/>
<path d="M176.742 38.3847C174.833 38.2484 173.17 39.748 173.17 39.748L180.095 40.2933C180.095 40.2933 178.678 38.5483 176.742 38.3847Z" fill="#95A65F"/>
<path d="M180.095 40.2933L173.17 39.748C173.17 39.748 174.588 41.493 176.496 41.6293C178.405 41.7656 180.095 40.2933 180.095 40.2933Z" fill="#ABD782"/>
<path d="M156.268 60.2222C154.359 60.0586 152.696 61.5582 152.696 61.5582L159.621 62.1035C159.621 62.1035 158.204 60.3585 156.268 60.2222Z" fill="#95A65F"/>
<path d="M159.621 62.1032L152.696 61.5579C152.696 61.5579 154.114 63.3028 156.022 63.4664C157.931 63.63 159.621 62.1032 159.621 62.1032Z" fill="#ABD782"/>
<path d="M159.866 58.2867C159.185 56.4872 157.085 55.6147 157.085 55.6147L159.621 62.1038C159.621 62.1038 160.575 60.0589 159.866 58.2867Z" fill="#95A65F"/>
<path d="M159.621 62.1038L157.085 55.6147C157.085 55.6147 156.158 57.6596 156.84 59.4591C157.522 61.2586 159.621 62.1038 159.621 62.1038Z" fill="#ABD782"/>
<path d="M173.552 35.9315C173.143 34.7864 171.807 34.2139 171.807 34.2139L173.361 38.3854C173.361 38.3854 173.988 37.0767 173.552 35.9315Z" fill="#95A65F"/>
<path d="M173.361 38.3854L171.807 34.2139C171.807 34.2139 171.18 35.5226 171.616 36.6677C172.052 37.8128 173.361 38.3854 173.361 38.3854Z" fill="#ABD782"/>
<path d="M150.543 26.6622C148.77 25.9806 146.726 26.9349 146.726 26.9349L153.215 29.416C153.215 29.416 152.342 27.3438 150.543 26.6622Z" fill="#95A65F"/>
<path d="M153.215 29.4159L146.726 26.9348C146.726 26.9348 147.598 29.0342 149.398 29.7158C151.197 30.3975 153.215 29.4159 153.215 29.4159Z" fill="#ABD782"/>
<path d="M173.415 119.381H174.424V79.6055C174.424 79.4754 174.372 79.3505 174.28 79.2585C174.188 79.1665 174.064 79.1148 173.933 79.1148C173.867 79.1111 173.8 79.121 173.737 79.144C173.674 79.167 173.617 79.2026 173.569 79.2485C173.52 79.2944 173.482 79.3498 173.455 79.4112C173.429 79.4726 173.415 79.5387 173.415 79.6055V119.381Z" fill="#95A65F"/>
<path d="M161.611 120.799C161.611 120.799 166.273 115.183 170.035 116.791C173.797 118.4 174.397 115.51 176.36 116.464C178.323 117.418 180.776 119.79 180.776 119.79L161.611 120.799Z" fill="#4B83C7"/>
<path d="M170.608 90.8377C169.342 90.8223 168.099 90.5045 166.982 89.9107C166.922 89.8763 166.878 89.8206 166.858 89.7549C166.837 89.6891 166.843 89.6182 166.873 89.5563C166.886 89.5271 166.906 89.5014 166.931 89.4809C166.956 89.4605 166.985 89.4458 167.017 89.438C167.048 89.4301 167.081 89.4294 167.112 89.4357C167.144 89.442 167.174 89.4552 167.2 89.4745C171.235 91.6011 174.152 89.3381 174.289 89.2291C174.311 89.2075 174.338 89.1909 174.367 89.1804C174.396 89.17 174.427 89.1659 174.458 89.1685C174.489 89.1711 174.519 89.1802 174.547 89.1954C174.574 89.2105 174.597 89.2313 174.616 89.2563C174.638 89.281 174.655 89.31 174.666 89.3415C174.676 89.3729 174.681 89.4063 174.678 89.4394C174.676 89.4726 174.666 89.5048 174.651 89.5343C174.635 89.5638 174.614 89.5898 174.588 89.6108C173.421 90.4235 172.03 90.8523 170.608 90.8377Z" fill="#4DA2DF"/>
<path d="M167.254 89.9657L166.818 89.6931C166.491 89.5022 163.601 87.7572 163.492 86.4213C163.481 86.2637 163.51 86.1059 163.576 85.9627C163.643 85.8195 163.746 85.6958 163.874 85.6033C164.364 85.2216 164.828 85.1126 165.264 85.3034C166.655 85.8487 167.118 89.0932 167.173 89.4477L167.254 89.9657ZM164.855 85.7124C164.603 85.7218 164.362 85.8181 164.174 85.985C164.111 86.033 164.061 86.0951 164.028 86.1663C163.995 86.2374 163.979 86.3155 163.983 86.394C164.037 87.1574 165.619 88.3571 166.6 88.9842C166.382 87.8663 165.891 86.0668 165.073 85.7397L164.855 85.7124Z" fill="#4DA2DF"/>
<path d="M164.174 92.9371C164.048 92.9348 163.926 92.898 163.82 92.8306C163.714 92.7633 163.629 92.668 163.574 92.5554C163.494 92.4414 163.445 92.309 163.43 92.1706C163.416 92.0323 163.437 91.8926 163.492 91.7647C163.874 90.6741 166.191 89.8834 166.437 89.8016L167.036 89.5835L166.736 90.1561C166.491 90.6196 165.155 92.9098 164.174 92.9371ZM165.946 90.5105C165.182 90.8377 164.146 91.383 163.955 91.9283C163.926 91.9887 163.913 92.0558 163.918 92.1228C163.923 92.1898 163.945 92.2544 163.983 92.31C164.065 92.4463 164.146 92.4463 164.174 92.4463C164.201 92.4463 165.373 91.4375 165.946 90.5105Z" fill="#4DA2DF"/>
<path d="M167.472 89.5835C167.472 89.6992 167.426 89.8102 167.345 89.892C167.263 89.9738 167.152 90.0198 167.036 90.0198C166.925 90.0128 166.821 89.9638 166.745 89.8827C166.669 89.8017 166.627 89.6947 166.627 89.5835C166.627 89.4751 166.67 89.371 166.747 89.2943C166.824 89.2176 166.928 89.1746 167.036 89.1746C167.147 89.1743 167.254 89.2165 167.335 89.2925C167.416 89.3685 167.465 89.4726 167.472 89.5835Z" fill="#4DA2DF"/>
<path d="M1.63574 258.555L3.1079 259.809L4.90721 258.991L6.46116 260.518L8.12416 259.046L9.95073 260.682L11.641 259.509L13.6857 260.818L13.1949 261.581L11.6683 260.627L9.89621 261.854L8.12416 260.273L6.4339 261.772L4.71638 260.082L2.97159 260.9L1.58121 259.727L0.545246 260.491L0 259.755L1.63574 258.555Z" fill="#7AC8F5"/>
<path d="M214.609 24.8082L208.611 23.4451L207.03 27.698L201.059 26.553L198.878 30.4515L194.271 30.1516V32.0054L200.405 32.3871L202.477 28.7067L208.666 29.9062L210.247 25.7078L215.672 26.9619L214.609 24.8082Z" fill="#4DA2DF"/>
<path d="M385.216 121.889L387.397 118.209L385.598 114.365C385.555 114.264 385.541 114.153 385.558 114.044C385.574 113.935 385.62 113.833 385.69 113.749C385.76 113.665 385.853 113.601 385.956 113.566C386.06 113.53 386.172 113.524 386.279 113.547L390.423 114.474L393.531 111.584C393.608 111.505 393.706 111.45 393.813 111.425C393.92 111.401 394.033 111.407 394.136 111.445C394.24 111.482 394.33 111.549 394.397 111.636C394.464 111.724 394.504 111.829 394.513 111.939L394.921 116.192L398.629 118.264C398.725 118.315 398.805 118.392 398.858 118.487C398.912 118.582 398.937 118.69 398.932 118.799C398.926 118.908 398.889 119.012 398.826 119.101C398.763 119.19 398.676 119.259 398.575 119.299L394.676 120.99L393.858 125.161C393.841 125.27 393.792 125.372 393.719 125.454C393.645 125.536 393.549 125.595 393.442 125.624C393.336 125.653 393.223 125.65 393.118 125.616C393.013 125.582 392.919 125.519 392.85 125.434L390.014 122.244L385.789 122.762C385.683 122.769 385.577 122.747 385.482 122.7C385.387 122.653 385.306 122.581 385.248 122.492C385.19 122.404 385.156 122.301 385.151 122.195C385.145 122.089 385.168 121.984 385.216 121.889Z" fill="#5987D1"/>
<path d="M28.0529 223.605C28.3213 222.982 28.7247 222.427 29.2339 221.979C29.743 221.531 30.3453 221.202 30.9972 221.015C32.9874 220.415 34.8412 221.588 35.4137 223.469C35.9862 225.35 34.9503 228.703 30.6973 232.411C25.1631 231.647 22.4914 229.684 21.8644 227.531C21.7134 227.084 21.6546 226.611 21.6917 226.14C21.7288 225.67 21.8609 225.212 22.08 224.794C22.2992 224.376 22.6009 224.006 22.9668 223.708C23.3327 223.41 23.7553 223.19 24.2089 223.06C24.8497 222.858 25.5276 222.802 26.1928 222.896C26.8579 222.991 27.4936 223.233 28.0529 223.605Z" fill="white"/>
<path d="M11.7229 229.439C13.4934 229.207 15.25 228.88 16.9851 228.458C17.5304 228.321 18.4574 228.267 18.7027 227.722C18.7771 227.597 18.8016 227.449 18.7712 227.308C18.7409 227.166 18.6579 227.041 18.5391 226.958C18.0484 226.631 17.285 226.985 16.7669 227.122C15.1583 227.504 13.3316 227.885 11.4503 228.158C11.367 228.174 11.2878 228.207 11.2175 228.254C11.1473 228.302 11.0874 228.363 11.0415 228.435C10.9956 228.506 10.9647 228.586 10.9506 228.669C10.9365 228.753 10.9395 228.839 10.9595 228.921C10.9926 229.091 11.0914 229.241 11.2344 229.338C11.3774 229.435 11.5531 229.471 11.7229 229.439Z" fill="white"/>
<path d="M39.5849 226.986L41.8751 226.413C42.6113 226.25 43.511 226.168 44.1654 225.732C44.2699 225.67 44.3521 225.576 44.3999 225.464C44.4478 225.353 44.4588 225.229 44.4315 225.11C44.4042 224.992 44.3399 224.885 44.2479 224.806C44.156 224.726 44.0411 224.678 43.92 224.668C43.1566 224.587 42.3386 224.914 41.6025 225.105L39.285 225.677C38.467 225.895 38.7397 227.177 39.5849 226.986Z" fill="white"/>
<path d="M21.2919 237.782C21.8645 235.928 22.9006 235.137 23.664 234.292C23.7761 234.212 23.852 234.092 23.875 233.956C23.898 233.821 23.8662 233.681 23.7867 233.569C23.7071 233.457 23.5863 233.381 23.4508 233.358C23.3153 233.335 23.1762 233.367 23.0642 233.447C21.5101 234.074 20.474 235.846 20.0378 237.4C19.7924 238.191 21.0466 238.572 21.2919 237.782Z" fill="white"/>
<path d="M31.1337 239.69C30.9031 238.912 30.8473 238.093 30.9701 237.291C31.0247 236.773 31.6518 235.3 30.6702 235.273C29.6887 235.246 29.6614 236.773 29.6069 237.4C29.5231 238.262 29.6064 239.132 29.8523 239.963C30.0977 240.781 31.3791 240.508 31.1337 239.69Z" fill="white"/>
<path d="M36.477 233.256L38.0038 233.883C38.4946 234.101 39.0126 234.428 39.5579 234.183C39.6906 234.113 39.7906 233.994 39.8365 233.851C39.8824 233.708 39.8705 233.553 39.8033 233.419C39.6124 232.929 38.849 232.765 38.3855 232.601L36.8859 231.974C36.8 231.949 36.71 231.941 36.621 231.951C36.532 231.961 36.4458 231.988 36.3673 232.031C36.2888 232.074 36.2196 232.132 36.1636 232.202C36.1075 232.272 36.0658 232.352 36.0407 232.438C35.9969 232.604 36.0175 232.781 36.0984 232.932C36.1793 233.084 36.3145 233.2 36.477 233.256Z" fill="white"/>
<path d="M21.6194 220.17C19.0565 216.626 19.0838 216.599 18.6748 216.353C18.5761 216.301 18.4648 216.277 18.3533 216.285C18.2419 216.293 18.1349 216.331 18.0442 216.396C17.9535 216.462 17.8828 216.551 17.8401 216.654C17.7974 216.757 17.7843 216.87 17.8023 216.98C17.9114 217.444 17.9114 217.362 20.6379 221.07C20.6969 221.135 20.7681 221.187 20.8474 221.224C20.9266 221.261 21.0124 221.282 21.0997 221.285C21.1871 221.289 21.2743 221.276 21.3564 221.246C21.4386 221.216 21.514 221.17 21.5785 221.111C21.6429 221.052 21.6951 220.981 21.7321 220.902C21.769 220.822 21.79 220.737 21.7938 220.649C21.7976 220.562 21.7841 220.475 21.7542 220.392C21.7243 220.31 21.6785 220.235 21.6194 220.17Z" fill="white"/>
<path d="M28.6528 218.426C28.7391 217.711 28.7573 216.99 28.7073 216.272C28.6528 215.59 28.6528 214.554 27.9439 214.254C27.8574 214.23 27.766 214.229 27.6794 214.254C27.5929 214.278 27.5146 214.325 27.4531 214.39C26.9896 214.881 27.3168 215.726 27.3713 216.353C27.4214 217.026 27.4031 217.702 27.3168 218.371C27.3412 218.527 27.4189 218.669 27.5366 218.774C27.6543 218.879 27.8048 218.94 27.9624 218.947C28.12 218.953 28.2749 218.905 28.4008 218.81C28.5267 218.715 28.6157 218.579 28.6528 218.426Z" fill="white"/>
<path d="M38.7127 216.68C38.7134 216.53 38.6577 216.385 38.5568 216.274C38.4558 216.163 38.3169 216.094 38.1675 216.08C37.5676 215.999 36.9951 216.68 36.6134 217.035C36.1768 217.475 35.7757 217.949 35.4137 218.453C35.3233 218.601 35.2955 218.779 35.3364 218.948C35.3773 219.116 35.4836 219.262 35.6318 219.352C35.7801 219.443 35.9581 219.47 36.1269 219.43C36.2956 219.389 36.4412 219.282 36.5316 219.134C38.0039 217.307 38.6037 217.471 38.7127 216.68Z" fill="white"/>
<path d="M436.66 170.989C436.033 176.032 441.295 180.04 445.984 179.713C451.136 179.386 455.525 175.133 456.289 170.062C457.107 164.555 453.808 160.138 448.683 159.757C443.557 159.375 440.531 163.792 441.949 168.263C442.985 171.452 445.929 172.652 447.401 171.779C448.873 170.907 448.465 169.353 447.074 169.026C446.803 168.985 446.525 169.022 446.274 169.133C446.023 169.244 445.809 169.425 445.657 169.653C444.43 169.162 443.285 166.954 444.075 164.555C445.057 161.502 448.928 161.338 451.327 162.756C454.38 164.555 454.871 168.481 453.753 171.589C452.636 174.696 449.364 177.423 445.875 177.695C443.958 177.823 442.068 177.191 440.614 175.936C439.16 174.681 438.258 172.904 438.105 170.989C438.023 170.062 436.796 170.062 436.66 170.989Z" fill="white"/>
<path d="M30.9699 279.82C30.6428 282.41 33.3418 284.454 35.7408 284.291C38.1399 284.127 40.6208 281.946 41.0297 279.356C41.4387 276.766 39.7484 274.258 37.1312 274.067C34.514 273.877 32.9328 276.139 33.6689 278.429C34.2142 280.065 35.7136 280.665 36.4497 280.229C37.1858 279.793 37.0222 278.975 36.3134 278.811C36.1721 278.788 36.0273 278.807 35.8966 278.865C35.7659 278.923 35.6549 279.018 35.5773 279.138C34.9502 278.893 34.3505 277.748 34.7594 276.521C35.1683 275.294 37.2403 274.885 38.4671 275.594C39.6939 276.303 40.2937 278.538 39.7211 280.12C39.4095 280.968 38.8661 281.711 38.1528 282.265C37.4395 282.819 36.5849 283.162 35.6863 283.255C34.7057 283.315 33.7403 282.99 32.9966 282.348C32.2528 281.706 31.7896 280.799 31.706 279.82C31.6839 279.739 31.6359 279.668 31.5694 279.617C31.5029 279.567 31.4216 279.539 31.338 279.539C31.2544 279.539 31.1731 279.567 31.1066 279.617C31.0401 279.668 30.9921 279.739 30.9699 279.82Z" fill="#7AC8F5"/>
<path d="M43.3471 167.745V162.892L39.3122 160.193C39.21 160.121 39.1296 160.022 39.0796 159.908C39.0297 159.793 39.0122 159.667 39.0291 159.543C39.046 159.42 39.0966 159.303 39.1754 159.206C39.2541 159.109 39.3581 159.035 39.4758 158.993L44.0559 157.467L45.3917 152.805C45.4272 152.683 45.4958 152.574 45.5898 152.489C45.6838 152.405 45.7996 152.348 45.9241 152.325C46.0486 152.303 46.177 152.315 46.2949 152.361C46.4127 152.407 46.5153 152.486 46.5913 152.587L49.4538 156.485L54.3065 156.322C54.4286 156.325 54.5475 156.361 54.6508 156.427C54.7541 156.492 54.838 156.583 54.8937 156.692C54.9495 156.801 54.975 156.922 54.9676 157.044C54.9602 157.166 54.9202 157.284 54.8518 157.385L52.0437 161.338L53.7067 165.891C53.752 166.009 53.7621 166.138 53.7358 166.261C53.7094 166.385 53.6478 166.498 53.5584 166.588C53.469 166.677 53.3556 166.739 53.232 166.765C53.1083 166.791 52.9797 166.781 52.8616 166.736L48.2543 165.291L44.4376 168.263C44.3382 168.337 44.2202 168.383 44.0965 168.396C43.9728 168.408 43.848 168.387 43.7357 168.333C43.6233 168.28 43.5278 168.197 43.4593 168.093C43.3908 167.989 43.352 167.869 43.3471 167.745Z" fill="#4DA2DF"/>
<path d="M394.458 227.586C394.407 226.791 394.591 226 394.989 225.31C395.386 224.62 395.979 224.063 396.692 223.71C397.405 223.356 398.207 223.221 398.997 223.322C399.786 223.423 400.529 223.756 401.13 224.278C401.731 224.799 402.164 225.487 402.376 226.255C402.587 227.022 402.566 227.835 402.316 228.591C402.066 229.347 401.599 230.012 400.972 230.503C400.345 230.993 399.587 231.288 398.793 231.348C397.721 231.416 396.666 231.059 395.855 230.355C395.043 229.651 394.542 228.657 394.458 227.586Z" fill="#7AC8F5"/>
<path d="M401.328 239.009C401.083 237.836 400.947 236.582 400.538 235.437C400.129 234.292 398.684 234.783 398.765 235.819C398.847 236.855 399.256 238.409 399.529 239.663C399.638 240.154 400.292 240.399 400.728 240.235C401.165 240.072 401.437 239.527 401.328 239.009Z" fill="#7AC8F5"/>
<path d="M408.253 233.992C406.917 233.202 405.745 232.22 404.518 231.293C404.334 231.13 404.092 231.048 403.847 231.063C403.601 231.078 403.372 231.19 403.209 231.375C403.047 231.559 402.964 231.801 402.979 232.046C402.994 232.292 403.107 232.521 403.291 232.683C404.436 233.938 405.936 234.919 407.381 235.764C407.616 235.88 407.888 235.899 408.137 235.817C408.387 235.736 408.595 235.56 408.717 235.328C408.823 235.088 408.834 234.817 408.748 234.569C408.662 234.321 408.485 234.115 408.253 233.992Z" fill="#7AC8F5"/>
<path d="M405.717 226.74C405.574 226.849 405.478 227.008 405.447 227.185C405.417 227.362 405.455 227.544 405.554 227.694C405.99 228.512 407.162 228.458 407.98 228.43C408.835 228.398 409.679 228.242 410.489 227.967C411.688 227.558 411.034 225.704 409.834 226.113C407.49 226.904 406.617 226.058 405.717 226.74Z" fill="#7AC8F5"/>
<path d="M404.436 218.889C403.264 220.606 402.282 221.179 402.446 222.133C402.456 222.255 402.494 222.374 402.557 222.479C402.619 222.585 402.705 222.675 402.807 222.743C402.909 222.811 403.025 222.856 403.147 222.873C403.268 222.89 403.392 222.879 403.509 222.842C404.136 222.678 404.491 222.024 404.872 221.561L405.908 220.17C406.07 219.97 406.151 219.716 406.136 219.459C406.121 219.202 406.011 218.96 405.827 218.78C405.445 218.48 404.736 218.452 404.436 218.889Z" fill="#7AC8F5"/>
<path d="M399.856 218.589C399.475 217.553 399.393 217.171 398.902 216.68C398.411 216.189 397.566 216.517 397.511 217.144C397.457 217.771 397.593 218.125 398.002 219.243C398.094 219.485 398.276 219.682 398.509 219.794C398.743 219.905 399.01 219.923 399.256 219.843C399.494 219.745 399.687 219.563 399.798 219.331C399.909 219.1 399.93 218.835 399.856 218.589Z" fill="#7AC8F5"/>
<path d="M394.895 221.124C393.204 219.816 392.85 219.461 392.168 219.516C391.487 219.57 391.35 219.952 391.432 220.388C391.514 220.825 392.059 221.424 393.64 222.569C393.835 222.724 394.082 222.799 394.33 222.778C394.578 222.758 394.809 222.645 394.976 222.46C395.141 222.272 395.224 222.026 395.209 221.776C395.194 221.526 395.081 221.292 394.895 221.124Z" fill="#7AC8F5"/>
<path d="M388.079 227.013C387.397 227.394 387.67 228.539 388.379 228.621C389.088 228.703 389.36 228.621 392.714 227.994C392.972 227.973 393.212 227.854 393.384 227.661C393.557 227.468 393.649 227.217 393.641 226.958C393.613 226.467 393.123 225.949 392.605 226.031C389.088 226.685 388.733 226.658 388.079 227.013Z" fill="#7AC8F5"/>
<path d="M393.341 232.547C391.514 234.319 391.241 234.019 390.505 235.11C390.178 235.601 390.723 236.391 391.296 236.309C391.868 236.228 392.25 236.037 393.204 235.273C393.775 234.821 394.321 234.339 394.84 233.828C395.222 233.474 395.113 232.765 394.731 232.438C394.633 232.353 394.519 232.289 394.396 232.248C394.272 232.208 394.142 232.192 394.013 232.202C393.884 232.213 393.758 232.248 393.642 232.307C393.527 232.367 393.424 232.448 393.341 232.547Z" fill="#7AC8F5"/>
<path d="M76.9888 389.878H80.9418V179.658C80.9418 179.135 80.7359 178.633 80.3686 178.26C80.0012 177.888 79.502 177.675 78.9789 177.668C78.4511 177.668 77.9449 177.878 77.5717 178.251C77.1984 178.624 76.9888 179.13 76.9888 179.658V389.878Z" fill="#4DA2DF"/>
<path d="M103.733 389.878H107.686V176.087C107.686 175.564 107.48 175.062 107.113 174.689C106.745 174.317 106.246 174.104 105.723 174.097C105.195 174.097 104.689 174.306 104.316 174.68C103.943 175.053 103.733 175.559 103.733 176.087V389.878Z" fill="#4DA2DF"/>
<path d="M107.032 200.459H79.7968V202.831H107.032V200.459Z" fill="#4DA2DF"/>
<path d="M107.032 232.247H79.7968V234.619H107.032V232.247Z" fill="#4DA2DF"/>
<path d="M107.032 264.035H79.7968V266.407H107.032V264.035Z" fill="#4DA2DF"/>
<path d="M107.032 295.823H79.7968V298.195H107.032V295.823Z" fill="#4DA2DF"/>
<path d="M87.403 315.997H70.2277C69.5455 315.997 68.8909 316.266 68.406 316.746C67.921 317.226 67.645 317.877 67.6378 318.559V328.21H70.5276V319.077H87.403V315.997Z" fill="#174470"/>
<path d="M90.7017 309.481L85.3583 303.865C85.3583 303.865 79.6604 307 73.0084 309.999C71.1819 306.809 68.2103 296.341 68.0467 295.85C67.8831 295.359 71.5363 289.062 70.7184 288.898C69.9005 288.735 68.8373 292.279 67.9649 291.924C67.0925 291.57 64.8843 283.391 64.3663 283.855C63.3848 284.673 65.5386 288.925 65.0206 289.225C64.5026 289.525 63.2213 284.536 62.2126 284.754C61.2039 284.972 63.9028 289.307 63.6029 289.716C63.3031 290.125 60.5223 286.063 59.9498 287.017C59.6499 287.508 62.5125 290.561 61.9399 290.888C61.3674 291.215 58.7503 289.307 58.4231 289.934C58.096 290.561 60.8494 291.215 61.6128 292.769C62.3761 294.323 63.7393 294.95 64.2027 297.922C64.6662 300.894 65.9202 316.733 69.1372 317.987C72.3541 319.241 90.7017 309.481 90.7017 309.481Z" fill="#EFAC7F"/>
<path d="M139.828 382.544C140.264 379.545 140.237 374.038 140.019 368.204C142.609 368.095 144.817 367.904 147.434 367.74C146.344 375.183 145.608 382.844 145.608 382.844L145.799 384.316L145.88 388.651L131.132 388.76C133.708 387.562 136.204 386.196 138.601 384.67C138.951 384.429 139.242 384.113 139.454 383.745C139.667 383.378 139.794 382.967 139.828 382.544Z" fill="#EFAC7F"/>
<path d="M146.289 389.605L130.723 389.769C130.177 389.741 130.041 389.278 130.232 389.005C130.423 388.733 132.413 387.997 134.403 387.07C137.893 387.424 145.226 385.052 145.799 384.234C146.099 385.843 146.589 389.523 146.289 389.605Z" fill="#474747"/>
<path d="M166.273 379.463C165.046 376.71 162.129 372.021 158.885 367.195L165.264 362.67L171.344 376.655L172.27 377.828L174.642 381.481L162.156 389.332C163.715 386.959 165.108 384.481 166.327 381.917C166.518 381.59 166.791 380.636 166.273 379.463Z" fill="#EFAC7F"/>
<path d="M175.297 382.38L162.347 390.423C161.856 390.668 161.502 390.368 161.502 390.014C161.502 389.659 162.838 388.024 164.037 386.17C167.2 384.643 172.161 378.7 172.189 377.719C173.306 378.945 175.515 382.162 175.297 382.38Z" fill="#474747"/>
<path d="M160.22 257.928C161.365 252.312 157.74 246.723 152.669 244.624C152.696 241.434 151.66 237.372 149.479 235.191C145.172 230.857 136.938 229.33 133.776 234.864C129.578 237.236 126.279 242.361 127.533 247.023C123.471 251.249 124.998 258.855 130.941 262.426C130.832 267.17 133.34 271.832 137.456 273.849C138.438 274.34 139.992 275.022 140.183 275.24C139.937 274.994 143.236 284.209 153.541 279.983C163.846 275.758 167.063 263.544 160.22 257.928Z" fill="#743810"/>
<path d="M139.556 378.318C140.837 371.23 136.393 353.673 133.694 345.931C130.995 338.188 129.087 303.892 129.087 303.892L132.277 300.157L145.308 299.367C145.308 299.367 139.774 316.406 139.774 322.267C139.774 328.128 142.473 343.232 145.635 351.083C148.552 358.335 147.353 373.547 146.453 378.536C144.16 378.887 141.822 378.813 139.556 378.318Z" fill="#063D65"/>
<path d="M148.607 300.948C149.206 301.548 152.696 305.692 152.696 308.609C152.696 311.526 146.099 337.589 147.68 339.17C149.261 340.751 155.122 344.704 158.885 350.211C162.02 354.873 169.244 368.313 170.635 371.503C167.908 373.384 165.537 374.256 162.81 375.183C162.374 372.784 141.028 349.257 138.601 344.35C136.175 339.442 134.839 316.951 133.612 313.952C132.386 310.953 129.087 303.374 129.087 303.374L148.607 300.948Z" fill="#003256"/>
<path d="M129.605 281.728C129.605 281.728 121.563 290.916 112.648 294.378C111.706 294.763 110.831 295.297 110.058 295.959C110.058 296.886 111.748 296.232 111.748 296.232C111.4 296.844 111.302 297.567 111.476 298.249C111.775 299.367 113.711 298.631 114.747 298.631C115.238 298.631 117.719 295.85 121.072 294.214C125.052 292.279 129.714 290.398 130.286 289.825C131.35 288.762 129.905 281.401 129.605 281.728Z" fill="#EFAC7F"/>
<path d="M145.962 255.883C145.962 255.883 137.865 255.065 133.64 257.764C129.414 260.463 126.715 270.06 126.715 274.176C126.715 278.293 129.768 299.803 128.596 303.919C128.596 303.919 141.982 303.32 146.535 303.32C151.088 303.32 152.069 301.575 152.069 301.575C152.069 301.575 142.554 292.197 142.554 288.107C142.554 284.018 145.962 255.883 145.962 255.883Z" fill="white"/>
<path d="M35.4137 366.323V380.363H36.9404V367.577H47.0002V371.966C43.1017 372.375 40.0755 375.974 40.0755 380.363C40.0755 384.752 43.5106 388.787 47.7635 388.787C52.0164 388.787 55.4515 384.998 55.4515 380.363C55.4515 375.728 52.3981 372.375 48.5269 371.966V367.577H50.5988V365.914H48.5269V360.871H50.5988V359.207H48.5269V353.591H76.0618V351.083H60.8494V336.798C60.8494 332.981 64.339 328.701 69.0554 328.701H82.1412V326.193H69.0554C63.4666 326.193 58.5594 331.155 58.5594 336.798V351.083H48.5269V343.068H47.0002V359.207H41.9021C38.3308 359.207 35.4137 362.397 35.4137 366.323ZM47.0002 365.914H36.9404C37.1312 363.106 39.2849 360.871 41.9021 360.871H47.0002V365.914Z" fill="white"/>
<path d="M41.3842 368.504L41.6841 373.929C41.7931 374.638 42.2566 376.328 42.2566 376.955C42.2566 379.3 31.7879 374.965 34.1324 373.929C34.3505 373.82 35.5501 372.512 35.8499 371.775C36.3952 370.467 36.6406 367.877 36.6406 367.877L41.3842 368.504Z" fill="#F48D7F"/>
<path d="M34.1597 373.902C34.1597 373.902 36.6133 374.611 37.8674 374.802C39.1215 374.992 40.7845 373.466 41.6841 373.875C42.5838 374.284 42.7201 378.455 42.7201 378.455C42.7201 378.455 29.5796 378.891 25.7629 378.318C24.2362 378.1 29.1435 375.565 34.1597 373.902Z" fill="#577BBE"/>
<path d="M93.6732 356.945H96.563V301.984C96.563 300.13 98.3623 298.631 100.598 298.631H126.552C126.713 298.634 126.873 298.606 127.023 298.548C127.173 298.489 127.311 298.402 127.427 298.291C127.544 298.179 127.637 298.046 127.702 297.898C127.767 297.751 127.802 297.592 127.806 297.431C127.806 297.269 127.773 297.108 127.709 296.959C127.646 296.81 127.552 296.675 127.435 296.563C127.318 296.451 127.179 296.364 127.027 296.307C126.875 296.25 126.714 296.224 126.552 296.231H100.598C96.7811 296.231 93.6732 298.794 93.6732 301.984V356.945Z" fill="white"/>
<path d="M80.1512 345.413C89.7475 345.413 97.5445 353.292 97.5445 362.997C97.5445 372.702 89.7475 380.554 80.1512 380.554C70.5549 380.554 62.7306 372.702 62.7306 362.997C62.7306 353.292 70.5276 345.413 80.1512 345.413Z" fill="white"/>
<path d="M58.941 362.997C58.941 374.802 68.4283 384.371 80.1511 384.371C91.8739 384.371 101.334 374.802 101.334 362.997C101.334 351.193 91.8466 341.596 80.1511 341.596C68.4556 341.596 58.941 351.165 58.941 362.997ZM60.9584 362.997C60.9584 352.283 69.5461 343.614 80.1511 343.614C90.7561 343.614 99.3438 352.283 99.3438 362.997C99.3438 373.711 90.7289 382.353 80.1511 382.353C69.5733 382.353 60.9584 373.684 60.9584 362.997Z" fill="#474747"/>
<path d="M94.0822 338.597H102.588V305.593H94.0822V338.597Z" fill="#8A86DC"/>
<path d="M66.111 359.208H58.9138C57.9829 359.211 57.0619 359.398 56.2033 359.758C55.3447 360.117 54.5653 360.642 53.9096 361.303C53.254 361.964 52.7349 362.747 52.3819 363.608C52.029 364.47 51.8492 365.392 51.8528 366.323V380.363H53.5158V366.323C53.5122 365.611 53.649 364.904 53.9183 364.245C54.1877 363.585 54.5843 362.985 55.0855 362.479C55.5868 361.972 56.1829 361.57 56.8397 361.294C57.4966 361.018 58.2013 360.874 58.9138 360.871H66.111V359.208Z" fill="#8A86DC"/>
<path d="M40.7299 344.568H63.1395V340.724H40.7299V344.568Z" fill="#474747"/>
<path d="M65.9748 365.914H52.6708V367.577H65.9748V365.914Z" fill="#8A86DC"/>
<path d="M95.9905 351.083H65.2659V353.581H95.9905V351.083Z" fill="#8A86DC"/>
<path d="M62.5669 344.595H102.561V340.694H62.5669V344.595Z" fill="#474747"/>
<path d="M101.334 359.889H103.815V304.928C103.829 304.022 104.201 303.158 104.85 302.525C105.498 301.892 106.371 301.54 107.277 301.548H130.614V299.176H107.277C104.006 299.176 101.334 301.738 101.334 304.928V359.889Z" fill="#8A86DC"/>
<path d="M55.9695 380.363C55.9695 384.998 60.1406 388.787 65.2659 388.787C70.3912 388.787 74.5624 384.998 74.5624 380.363C74.5624 375.728 70.3912 371.939 65.2659 371.939C60.1406 371.939 55.9695 375.701 55.9695 380.363Z" fill="#474747"/>
<path d="M59.6226 380.363C59.6226 383.171 62.1307 385.488 65.2659 385.488C68.401 385.488 70.9091 383.171 70.9091 380.363C70.9091 377.555 68.401 375.21 65.2659 375.21C62.1307 375.21 59.6226 377.528 59.6226 380.363Z" fill="#8A86DC"/>
<path d="M42.6382 326.193C45.3099 323.521 82.7138 324.802 82.7138 324.802C82.7138 324.802 51.035 332.545 49.1812 333.554C47.3273 334.562 40.43 368.613 40.43 369.049C38.5216 368.586 37.3493 368.94 35.4137 368.531C35.7408 362.615 38.3035 330.528 42.6382 326.193Z" fill="#4B83C7"/>
<path d="M46.2648 368.667C46.2648 368.667 46.592 374.093 46.592 374.12C46.701 374.802 47.1373 376.492 47.1373 377.12C47.1373 379.464 36.6948 375.129 39.0396 374.093C39.2577 373.984 40.6755 372.757 40.7573 371.939C40.8391 371.121 40.8118 368.749 40.8118 368.749L46.2648 368.667Z" fill="#F7A491"/>
<path d="M39.0669 374.065C39.0669 374.065 41.5205 374.774 42.7746 374.965C44.0287 375.156 45.6917 373.629 46.5641 374.038C47.4365 374.447 47.6 378.618 47.6 378.618C47.6 378.618 34.4869 379.054 30.6702 378.482C29.1435 378.264 34.0507 375.728 39.0669 374.065Z" fill="#577BBE"/>
<path d="M88.548 332.49C88.548 332.49 88.2481 340.996 85.4128 341.078C82.5775 341.16 64.4481 341.596 54.2248 340.669L47.3547 371.067L39.285 370.276C39.285 370.276 41.7114 349.993 42.5838 342.278C43.4562 334.562 45.8825 328.319 50.1627 328.156C54.4429 327.992 82.6866 323.63 82.6866 323.63L88.548 332.49Z" fill="#4DA2DF"/>
<path d="M96.1541 292.851C96.1541 292.851 100.734 294.023 100.134 302.965C99.5346 311.908 94.5456 338.952 85.4127 341.078C76.2799 343.205 70.3094 323.957 70.3094 323.957C70.3094 323.957 76.0618 322.049 78.4881 313.107C80.1511 306.891 84.5949 292.906 85.7126 292.224C88.4934 290.561 96.1541 292.851 96.1541 292.851Z" fill="#003256"/>
<path d="M76.9888 353.019H79.4696V336.798C79.4696 332.981 83.2864 328.701 88.3844 328.701H102.588V326.193H88.3844C82.3049 326.193 76.9888 331.155 76.9888 336.798V353.019Z" fill="#8A86DC"/>
<path d="M102.561 385.461C113.597 385.461 122.544 376.429 122.544 365.287C122.544 354.145 113.597 345.113 102.561 345.113C91.5243 345.113 82.5775 354.145 82.5775 365.287C82.5775 376.429 91.5243 385.461 102.561 385.461Z" fill="#8A86DC"/>
<path d="M78.2428 365.314C78.2428 378.863 89.1204 389.877 102.588 389.877C116.056 389.877 126.933 378.863 126.933 365.314C126.933 351.765 116.028 340.751 102.588 340.751C89.1477 340.751 78.2428 351.737 78.2428 365.314ZM80.5328 365.314C80.5328 353.019 90.4018 343.068 102.588 343.068C114.774 343.068 124.616 353.019 124.616 365.314C124.616 377.609 114.747 387.533 102.588 387.533C90.429 387.533 80.5328 377.582 80.5328 365.314Z" fill="#8A86DC"/>
<path d="M86.0944 365.314C86.0944 374.502 93.4824 381.944 102.588 381.944C111.694 381.944 119.082 374.502 119.082 365.314C119.082 356.127 111.694 348.657 102.588 348.657C93.4824 348.657 86.0944 356.127 86.0944 365.314Z" fill="white"/>
<path d="M98.8803 365.315C98.891 366.046 99.1176 366.757 99.5315 367.36C99.9455 367.962 100.528 368.429 101.207 368.701C101.885 368.974 102.629 369.039 103.345 368.89C104.06 368.741 104.716 368.384 105.229 367.863C105.742 367.342 106.09 366.681 106.229 365.964C106.367 365.246 106.291 364.503 106.009 363.829C105.726 363.154 105.251 362.579 104.643 362.173C104.034 361.768 103.319 361.552 102.588 361.552C102.097 361.552 101.61 361.65 101.157 361.839C100.703 362.029 100.292 362.307 99.9469 362.657C99.6018 363.007 99.3298 363.423 99.1467 363.879C98.9636 364.335 98.8731 364.823 98.8803 365.315Z" fill="#8A86DC"/>
<path d="M28.9798 382.926H54.1702V378.564H28.9798V382.926Z" fill="#474747"/>
<path d="M39.9121 382.926H54.1975V378.564H39.9121V382.926Z" fill="#8A86DC"/>
<path d="M66.0838 344.54H64.4208V382.917H66.0838V344.54Z" fill="#8A86DC"/>
<path d="M64.2845 380.854C64.3242 381.096 64.4489 381.317 64.6362 381.476C64.8235 381.635 65.0612 381.723 65.3069 381.723C65.5527 381.723 65.7904 381.635 65.9777 381.476C66.165 381.317 66.2896 381.096 66.3294 380.854C66.3537 380.706 66.3454 380.554 66.3052 380.409C66.265 380.264 66.1938 380.13 66.0966 380.016C65.9993 379.901 65.8783 379.809 65.7419 379.746C65.6056 379.683 65.4572 379.65 65.3069 379.65C65.1567 379.65 65.0083 379.683 64.8719 379.746C64.7356 379.809 64.6146 379.901 64.5173 380.016C64.4201 380.13 64.3489 380.264 64.3087 380.409C64.2685 380.554 64.2602 380.706 64.2845 380.854Z" fill="#4F2AA3"/>
<path d="M93.4007 268.888C93.4007 268.888 96.6176 266.734 97.9535 270.523C98.3898 270.507 98.8268 270.516 99.2621 270.551C99.9164 270.796 100.543 271.478 101.143 271.859C103.242 273.195 104.197 275.785 104.306 278.184C104.442 281.101 103.242 283.228 101.334 285.327C100.799 285.962 100.163 286.505 99.4529 286.935C98.5532 287.399 97.8444 287.017 97.0266 287.235C96.2087 287.453 96.0724 288.135 95.2272 287.889C94.3821 287.644 92.8554 286.036 91.4105 286.254C89.9656 286.472 86.6396 285.19 86.6396 285.163C82.3594 283.5 85.2492 275.24 86.0671 272.295C86.885 269.351 90.7562 267.906 93.4007 268.888Z" fill="#D7D7D7"/>
<path d="M89.5294 287.698L88.4389 290.725L87.8391 292.415C87.8391 292.415 87.7846 295.441 88.4934 296.232C89.7202 297.567 94.7092 292.578 94.7092 292.578L96.2904 283.037L89.5294 287.698Z" fill="#EFAC7F"/>
<path d="M95.7731 286.118C93.8919 289.089 90.5928 290.425 88.4116 290.753L89.5295 287.699L96.2912 283.037L95.7731 286.118Z" fill="#D7A17D"/>
<path d="M95.009 273.25C94.4087 272.893 93.738 272.671 93.0433 272.598C92.3487 272.526 91.6466 272.605 90.9856 272.831C90.3246 273.056 89.7204 273.423 89.2148 273.904C88.7092 274.386 88.3142 274.972 88.0571 275.621C87.5211 277.067 87.066 278.542 86.694 280.038C85.7126 284.1 86.9667 288.544 88.8205 288.953C90.6743 289.362 96.3722 287.835 97.8443 282.083C98.744 278.538 97.6807 274.885 95.009 273.25Z" fill="#EFAC7F"/>
<path d="M96.3722 282.246C96.1813 283.146 96.6176 284.018 97.3537 284.182C98.0899 284.346 98.826 283.746 99.0441 282.846C99.2623 281.946 98.7988 281.074 98.0626 280.91C97.3265 280.747 96.563 281.346 96.3722 282.246Z" fill="#EFAC7F"/>
<path d="M90.6475 283.936C90.6475 283.936 93.0741 284.727 93.2922 285.627C93.5103 286.526 93.1831 287.835 91.9835 288.817C90.7838 289.798 88.2209 289.198 87.5393 288.653C86.8577 288.108 86.3124 285.79 86.994 284.481C87.6756 283.173 90.6475 283.936 90.6475 283.936Z" fill="#D7D7D7"/>
<path d="M91.438 285.817C91.438 285.817 91.438 286.799 91.0836 286.99C90.7414 287.188 90.3598 287.309 89.9657 287.344C89.6813 287.377 89.3933 287.331 89.1335 287.211C88.8737 287.091 88.6522 286.901 88.4934 286.663C88.4672 286.651 88.4452 286.632 88.4306 286.608C88.4159 286.583 88.4093 286.555 88.4116 286.526C88.226 286.085 88.1243 285.614 88.1117 285.136C88.6372 285.005 89.1803 284.959 89.7203 284.999C90.3202 285.109 91.438 285.817 91.438 285.817Z" fill="#EFAC7F"/>
<path d="M117.855 297.486C118.836 296.504 123.307 295.005 126.715 292.551C128.215 291.461 131.104 290.043 133.94 288.489C135.962 289.562 137.758 291.015 139.229 292.769C134.13 295.114 128.624 297.459 127.778 298.304C126.197 299.885 123.444 303.456 122.789 303.456C122.135 303.456 117.255 302.011 116.519 301.275C115.783 300.539 116.901 298.44 117.855 297.486Z" fill="#EFAC7F"/>
<path d="M133.94 288.489C137.484 286.526 140.919 284.345 141.273 282.437C141.9 278.974 138.983 264.035 140.619 261.172C142.255 258.31 145.962 255.883 145.962 255.883C146.535 255.883 148.661 257.192 149.234 259.755C149.806 262.317 148.77 285.517 148.198 287.644C147.925 288.625 143.89 292.578 139.392 294.65C138.002 292.933 135.984 289.607 133.94 288.489Z" fill="#8A86DC"/>
<path d="M97.3536 319.759L83.2045 323.467C83.2045 323.467 79.0333 326.466 77.1795 327.066C75.3257 327.665 73.0084 329.71 73.4718 330.337C73.9353 330.964 76.2526 328.838 76.6343 328.892C77.0159 328.947 75.2711 331.509 74.9713 333.172C74.6714 334.835 74.1261 336.471 75.0803 336.335C76.0345 336.198 76.716 332.436 76.716 332.436C76.716 332.436 78.1882 329.601 78.4336 329.928C78.6789 330.255 77.4521 332.218 77.4521 332.218C77.4521 332.218 77.1522 334.345 77.0159 335.081C76.8796 335.817 77.4521 337.289 77.8883 336.689C78.3245 336.089 78.0246 334.944 78.2973 334.154C78.7149 333.138 79.2551 332.176 79.9057 331.291C79.9057 331.291 78.8425 336.089 79.5241 336.198C80.2056 336.307 80.8872 332.354 80.8872 332.354C80.8872 332.354 82.4956 329.028 83.2317 328.729C83.9678 328.429 85.9034 327.175 87.4029 326.657C88.9023 326.139 95.1999 327.856 97.9806 327.883C100.761 327.911 105.314 326.193 105.696 324.012C105.805 323.331 105.396 322.595 104.742 321.886C103.824 320.887 102.649 320.161 101.346 319.786C100.043 319.411 98.6616 319.402 97.3536 319.759Z" fill="#EFAC7F"/>
<path d="M96.1541 292.851C96.1541 292.851 100.461 292.088 104.333 299.067C108.204 306.046 105.696 324.012 105.696 324.012L97.3536 319.759L96.1541 292.851Z" fill="#063D65"/>
<path d="M115.238 298.876C114.747 298.876 112.103 299.04 111.694 298.631C111.285 298.222 113.057 297.159 113.22 297.322C113.384 297.486 114.175 297.104 114.42 297.349C114.665 297.595 115.429 297.322 115.62 297.54C115.811 297.758 115.729 298.876 115.238 298.876Z" fill="#EFAC7F"/>
<path d="M141.764 248.659C141.764 248.659 140.864 253.621 141.028 255.584C141.191 257.547 140.346 263.844 136.448 263.844C132.549 263.844 135.194 257.328 135.575 255.393C135.957 253.457 136.529 246.096 136.529 246.096L141.764 248.659Z" fill="#EFAC7F"/>
<path d="M136.284 248.905C136.332 247.925 136.451 246.95 136.639 245.987L141.764 248.659C141.764 248.659 141.574 249.695 141.383 250.977C140.423 251.2 139.417 251.121 138.505 250.75C137.592 250.379 136.816 249.734 136.284 248.905Z" fill="#D7A17D"/>
<path d="M141.873 234.265C143.336 234.89 144.532 236.009 145.253 237.427C146.453 239.826 146.835 246.505 142.037 249.068C137.238 251.631 134.049 246.914 134.349 242.661C134.648 238.409 135.984 232.874 141.873 234.265Z" fill="#EFAC7F"/>
<path d="M132.904 241.489C132.795 242.58 133.176 243.507 133.776 243.588C134.376 243.67 134.976 242.798 135.112 241.68C135.248 240.562 134.84 239.662 134.24 239.608C133.64 239.553 133.04 240.371 132.904 241.489Z" fill="#EFAC7F"/>
<path d="M144.817 243.343C144.408 244.406 144.626 245.524 145.308 245.824C145.99 246.124 146.889 245.524 147.298 244.461C147.707 243.397 147.517 242.279 146.835 241.979C146.153 241.68 145.254 242.279 144.817 243.343Z" fill="#EFAC7F"/>
<path d="M381.345 52.5613L390.75 65.4563L396.966 58.6408L381.345 52.5613Z" fill="#5987D1"/>
<path d="M397.811 55.0967L396.966 58.6408L381.345 52.5613L397.811 55.0967Z" fill="#6FA6FF"/>
<path d="M396.966 60.0039L381.345 52.5613L395.848 65.4563L396.966 60.0039Z" fill="#6FA6FF"/>
<path d="M406.453 75.4617C406.344 75.4617 403.591 75.1618 400.128 73.0081C396.666 70.8544 395.33 67.0377 395.33 66.4379C395.33 66.3268 395.372 66.2198 395.448 66.1387C395.524 66.0577 395.628 66.0087 395.739 66.0017C395.85 66.0015 395.957 66.0437 396.038 66.1197C396.119 66.1957 396.169 66.2997 396.175 66.4106C396.203 66.8196 397.32 70.2819 400.565 72.2993C403.809 74.3167 406.508 74.6166 406.535 74.6166C406.646 74.6303 406.747 74.686 406.818 74.7722C406.889 74.8584 406.925 74.9686 406.917 75.08C406.914 75.1363 406.899 75.1914 406.873 75.2416C406.848 75.2919 406.812 75.3364 406.769 75.3722C406.725 75.408 406.675 75.4345 406.62 75.4499C406.566 75.4653 406.509 75.4693 406.453 75.4617Z" fill="#7AC8F5"/>
<path d="M423.52 79.2783C418.635 78.2898 413.953 76.4833 409.67 73.9349C406.126 71.8357 403.264 68.5915 399.638 66.8195C399.575 66.8031 399.517 66.7729 399.467 66.7311C399.417 66.6892 399.378 66.6368 399.351 66.5777C399.324 66.5185 399.311 66.4541 399.312 66.3892C399.313 66.3243 399.329 66.2604 399.358 66.2023C399.387 66.1442 399.428 66.0933 399.48 66.0534C399.531 66.0134 399.59 65.9855 399.654 65.9714C399.717 65.9574 399.783 65.9578 399.846 65.9724C399.91 65.9871 399.969 66.0157 400.02 66.0561C403.754 67.91 406.617 71.1269 410.107 73.2261C414.303 75.7263 418.894 77.4962 423.683 78.4605C425.725 78.8241 427.801 78.9521 429.872 78.8422C429.983 78.8419 430.09 78.8841 430.171 78.9601C430.252 79.0361 430.301 79.1402 430.308 79.2511C430.302 79.3604 430.258 79.4641 430.183 79.544C430.108 79.6238 430.008 79.6746 429.899 79.6873C427.764 79.7976 425.623 79.6604 423.52 79.2783Z" fill="#7AC8F5"/>
<path d="M217.499 227.013C217.499 227.013 207.166 208.583 204.631 204.658C202.095 200.732 195.58 185.165 195.334 184.565C195.089 183.966 199.86 176.577 198.797 176.332C197.733 176.087 196.561 180.203 195.443 179.713C194.326 179.222 191 169.244 190.373 169.762C189.173 170.662 192.145 175.923 191.49 176.25C190.836 176.577 188.928 170.471 187.646 170.662C186.365 170.852 190.045 176.25 189.691 176.741C189.337 177.232 185.547 172.106 184.866 173.197C184.484 173.797 188.355 177.668 187.619 178.022C186.883 178.377 183.421 175.896 183.066 176.605C182.712 177.314 186.256 178.322 187.292 180.258C188.328 182.194 190.182 183.039 190.918 186.637C191.654 190.236 192.799 203.24 196.616 209.728C200.432 216.217 208.911 230.584 208.911 230.584L217.499 227.013Z" fill="#EFAC7F"/>
<path d="M263.272 315.997C263.272 315.997 262.427 314.961 262.181 314.579C261.936 314.198 261.091 312.78 261.091 312.78C261.091 312.78 258.583 307.873 258.964 307.736C259.346 307.6 260.246 308.173 260.491 308.418L261.363 309.181C261.431 309.244 261.51 309.292 261.596 309.323C261.682 309.355 261.774 309.368 261.866 309.363C261.957 309.358 262.047 309.334 262.13 309.294C262.212 309.253 262.285 309.196 262.345 309.127C262.672 308.827 261.854 307.627 261.473 307.246C260.328 306.128 256.647 303.729 256.265 303.456C255.884 303.184 253.021 293.833 251.794 290.725C249.968 285.572 248.332 280.174 248.141 279.629L246.996 256.265L238.272 253.348C238.272 253.348 239.172 279.302 239.363 280.61C239.472 281.21 244.652 292.824 244.652 292.824C247.541 298.385 250.131 303.265 250.595 304.22C250.595 304.22 251.222 307.437 251.522 309.536C251.822 311.635 252.885 313.407 253.048 313.979C253.469 315.46 254.132 316.86 255.011 318.123C256.238 319.923 255.884 317.633 255.884 317.633C255.884 317.633 254.166 313.898 254.493 313.816C254.821 313.734 255.557 315.833 256.892 317.823L257.928 319.323C258.774 320.522 259.755 320.332 259.073 318.914C258.774 318.28 258.428 317.669 258.037 317.087C257.601 316.488 257.41 315.833 257.165 315.288C256.62 314.198 256.211 313.434 256.265 313.434C256.32 313.434 256.374 313.134 256.756 313.68C257.138 314.225 257.928 315.888 258.665 316.76C259.401 317.633 259.946 318.369 259.946 318.369C259.946 318.369 261.473 320.032 261.609 319.95C262.209 319.595 261.445 318.096 260.791 317.496C260.137 316.897 259.646 315.752 259.646 315.752C259.646 315.752 258.31 313.025 258.692 312.834C259.073 312.644 263.435 318.56 264.035 318.151C264.635 317.742 263.272 315.997 263.272 315.997Z" fill="#EFAC7F"/>
<path d="M247.651 224.914C247.869 219.816 247.105 214.772 244.843 210.028C242.88 205.939 238 203.622 233.583 203.622C219.516 203.595 217.717 222.187 208.775 229.357C206.048 231.566 202.968 233.338 200.378 235.71C190.836 244.433 195.143 260.573 203.922 268.206C210.001 273.522 219.57 276.548 227.095 272.377C230.993 270.224 233.992 266.625 236.091 262.672C239.118 257.083 241.053 250.622 243.18 244.652C245.306 238.681 247.378 231.702 247.651 224.914Z" fill="#D7D7D7"/>
<path d="M203.677 389.114C203.677 389.114 202.695 395.957 200.978 398.192C200.405 398.929 199.369 399.855 198.688 401.219C197.624 403.291 198.197 406.398 198.987 408.116C199.396 409.016 198.96 409.016 199.887 409.288C202.613 410.133 205.503 408.716 206.675 406.099C207.49 404.257 207.943 402.277 208.011 400.264C208.311 394.021 210.247 390.859 210.247 390.859L203.677 389.114Z" fill="#EFAC7F"/>
<path d="M233.502 392.25C233.502 392.25 234.129 399.992 233.638 402.5C233.365 403.836 231.866 406.617 232.547 407.871C233.229 409.125 234.02 409.452 234.02 409.452L251.631 409.752C252.585 409.752 251.958 409.152 251.168 408.58C249.913 407.653 248.878 407.026 244.843 405.09C244.57 404.954 243.616 404.354 243.261 404.136C242.331 403.515 241.487 402.772 240.753 401.928C239.499 400.51 239.39 393.694 239.39 393.694L233.502 392.25Z" fill="#EFAC7F"/>
<path d="M247.269 289.416C247.269 289.416 249.477 301.984 248.032 310.217C246.587 318.45 239.581 394.785 239.581 394.785L231.811 395.221C231.811 395.221 230.203 363.324 230.475 358.908C230.748 354.491 233.093 347.049 233.093 347.049L232.302 321.313L242.116 287.48L247.269 289.416Z" fill="#474747"/>
<path d="M224.45 286.772C224.45 286.772 218.344 295.959 216.872 303.565C215.399 311.172 217.962 334.535 215.154 344.486C213.627 349.884 207.875 358.199 207.003 365.178C206.13 372.157 202.722 390.396 202.722 390.396L210.465 391.922L228.513 346.34L242.662 305.147L246.288 283.937L224.45 286.772Z" fill="white"/>
<path d="M229.412 234.537C229.412 234.537 221.315 234.019 218.098 237.509C214.881 240.998 225.214 268.533 225.786 272.977C226.359 277.421 222.815 289.198 222.815 289.198C222.815 289.198 241.844 293.015 247.269 289.416C247.269 289.416 247.842 257.547 247.269 254.384C246.697 251.222 241.844 238.327 240.672 237.073C239.499 235.818 229.412 234.537 229.412 234.537Z" fill="#003256"/>
<path d="M232.084 223.741C232.084 223.741 232.057 223.959 231.975 224.368C231.62 226.304 230.23 232.765 229.276 234.537C228.322 236.309 233.174 243.506 238 242.661C239.445 242.416 236.8 236.391 236.909 235.764C237.155 234.537 237.482 232.874 237.836 231.156C238.027 230.202 238.218 229.221 238.409 228.294C238.899 225.677 239.336 223.55 239.336 223.55L232.084 223.741Z" fill="#EFAC7F"/>
<path d="M231.975 224.368C232.057 223.959 232.084 223.741 232.084 223.741L239.336 223.55C239.336 223.55 238.9 225.677 238.409 228.294L237.837 231.13C236.538 230.911 235.334 230.314 234.374 229.412C233.178 228.362 232.276 227.018 231.757 225.513L231.975 224.368Z" fill="#D7A17D"/>
<path d="M236.964 207.302C236.964 207.302 233.556 206.92 231.402 209.674C229.249 212.427 226.959 220.988 232.275 225.622C237.591 230.257 242.852 224.995 243.616 219.434C244.379 213.872 244.706 207.111 236.964 207.302Z" fill="#EFAC7F"/>
<path d="M245.197 219.352C244.57 220.579 243.507 221.261 242.825 220.879C242.144 220.497 242.116 219.161 242.743 217.934C243.371 216.707 244.434 216.026 245.116 216.407C245.797 216.789 245.824 218.125 245.197 219.352Z" fill="#EFAC7F"/>
<path d="M237.346 206.402C237.346 206.402 232.793 214.526 229.521 214.881C226.25 215.235 225.841 219.57 225.841 219.57C225.841 219.57 227.013 209.647 230.23 207.711C233.447 205.775 237.346 206.402 237.346 206.402Z" fill="#D7D7D7"/>
<path d="M207.193 404.736C202.968 405.499 200.16 403.045 198.688 401.192C197.624 403.291 197.106 406.399 197.897 408.116C198.688 409.834 200.623 409.588 202.232 409.643C203.84 409.697 205.231 408.77 206.076 407.298C206.536 406.485 206.91 405.626 207.193 404.736Z" fill="#474747"/>
<path d="M243.261 404.136C238.6 405.335 235.165 404.517 233.256 403.754C232.738 405.144 232.084 406.916 232.438 407.925C232.793 408.934 233.474 409.452 234.019 409.452C238.272 409.588 249.586 409.724 252.83 409.779C252.934 409.785 253.037 409.76 253.127 409.707C253.216 409.654 253.288 409.576 253.332 409.482C253.376 409.388 253.39 409.282 253.374 409.18C253.358 409.077 253.311 408.982 253.239 408.906C252.449 407.952 243.616 404.354 243.261 404.136Z" fill="#474747"/>
<path d="M230.394 216.926C230.639 218.371 230.121 219.707 229.194 219.898C228.267 220.089 227.313 219.053 227.04 217.608C226.768 216.163 227.313 214.854 228.24 214.663C229.167 214.472 230.121 215.481 230.394 216.926Z" fill="#EFAC7F"/>
<path d="M214.636 221.042C214.636 221.042 226.059 233.31 227.749 238.245C229.439 243.179 226.086 250.267 221.452 250.567C216.817 250.867 206.512 228.812 206.512 228.812L214.636 221.042Z" fill="#003256"/>
<path d="M227.613 66.0016L214.691 68.8097C213.955 68.9699 213.195 68.9835 212.454 68.8496C211.713 68.7156 211.005 68.4368 210.372 68.0291C209.739 67.6214 209.193 67.0928 208.764 66.4735C208.336 65.8543 208.033 65.1566 207.875 64.4204L206.675 58.9134C206.511 58.1774 206.495 57.4162 206.627 56.6738C206.76 55.9315 207.038 55.2228 207.446 54.5888C207.855 53.9548 208.385 53.4082 209.006 52.9806C209.627 52.553 210.327 52.253 211.065 52.0979L223.96 49.2626C225.445 48.9464 226.995 49.2303 228.272 50.0526C229.549 50.8749 230.449 52.1687 230.775 53.6518L231.975 59.1861C232.299 60.6682 232.022 62.2186 231.204 63.4965C230.386 64.7745 229.095 65.6755 227.613 66.0016Z" fill="white"/>
<path d="M207.984 61.4216L202.45 70.3645L210.929 66.711L207.984 61.4216Z" fill="#8A86DC"/>
<path d="M214.227 58.9406L216.381 58.4227C216.381 58.4227 218.644 55.7509 218.562 55.0149C218.48 54.2788 217.717 52.8611 218.098 52.5885C218.243 52.4667 218.41 52.3748 218.59 52.3183C218.77 52.2619 218.959 52.2419 219.147 52.2597C219.335 52.2775 219.518 52.3326 219.684 52.4218C219.85 52.5111 219.997 52.6326 220.116 52.7794C220.661 53.3519 220.906 55.969 221.179 56.0781C221.452 56.1871 222.624 55.8873 223.524 55.6692C223.813 55.5978 224.117 55.6084 224.401 55.6999C224.685 55.7914 224.938 55.9601 225.132 56.1872C225.266 56.3399 225.344 56.5336 225.354 56.7365C225.364 56.9395 225.305 57.1398 225.187 57.3049L224.778 57.8229L225.268 58.2318C225.445 58.3803 225.556 58.5927 225.576 58.8227C225.597 59.0526 225.525 59.2813 225.377 59.4586L225.078 59.8403L225.405 60.0857C225.5 60.1595 225.58 60.2525 225.638 60.3587C225.696 60.4648 225.731 60.5819 225.741 60.7023C225.751 60.8228 225.736 60.9441 225.697 61.0585C225.658 61.173 225.596 61.278 225.514 61.367L225.241 61.6941L225.323 61.7759C225.465 61.9398 225.541 62.1506 225.536 62.3673C225.531 62.584 225.445 62.7911 225.296 62.9482L224.996 63.2481L219.271 64.6385C218.736 64.7743 218.18 64.8021 217.635 64.7202L215.536 64.8566C215.424 64.8725 215.31 64.8444 215.219 64.7783C215.127 64.7122 215.065 64.6132 215.045 64.5021L213.9 59.4859C213.875 59.3704 213.895 59.2497 213.955 59.1483C214.016 59.047 214.113 58.9727 214.227 58.9406Z" fill="#232323"/>
<path d="M268.016 0.572121C279.575 2.72584 287.863 10.2502 286.554 17.3384C285.872 20.8825 282.928 23.6633 278.73 25.299L281.456 36.6401L273.114 26.6621C269.816 27.0555 266.478 26.9359 263.217 26.3077C251.658 24.154 243.343 16.6569 244.679 9.54142C246.015 2.42596 256.456 -1.55434 268.016 0.572121Z" fill="#7AC8F5"/>
<path d="M273.304 16.1934C272.671 17.5155 271.659 18.6201 270.398 19.3675C269.136 20.1149 267.682 20.4715 266.217 20.3924C264.753 20.3132 263.346 19.8018 262.172 18.9228C260.999 18.0438 260.112 16.8366 259.624 15.4538C259.137 14.071 259.07 12.5748 259.433 11.1541C259.795 9.7334 260.571 8.4521 261.662 7.47212C262.752 6.49214 264.109 5.85747 265.56 5.64834C267.011 5.4392 268.492 5.66498 269.815 6.29715C270.694 6.71734 271.482 7.30674 272.133 8.03166C272.785 8.75658 273.287 9.60279 273.611 10.5219C273.935 11.441 274.075 12.415 274.022 13.3881C273.97 14.3613 273.726 15.3145 273.304 16.1934Z" fill="#4DA2DF"/>
<path d="M262.536 12.3223C262.08 13.2695 262.02 14.359 262.367 15.3509C262.715 16.3429 263.443 17.1561 264.39 17.6116C265.337 18.0672 266.427 18.1278 267.419 17.7801C268.41 17.4324 269.224 16.7049 269.679 15.7576L262.536 12.3223Z" fill="#1D1D1D"/>
<path d="M436.987 213.981L434.425 214.254L433.552 210.165L429.79 210.11L428.618 207.166L427.146 207.738L428.672 211.664L432.271 211.746L433.17 215.971L437.014 215.59L436.987 213.981Z" fill="white"/>
<path d="M422.266 149.397L416.268 146.78L414.905 150.896L412.942 150.242L415.014 143.944L420.957 146.534L422.484 141.654L427.936 143.944L430.199 139.146L432.08 140.019L428.999 146.643L423.792 144.462L422.266 149.397Z" fill="#003256"/>
</svg>
