<svg width="17" height="14" viewBox="0 0 17 14" fill="none" xmlns="http://www.w3.org/2000/svg">
<path d="M2.80002 0C2.05741 0 1.34521 0.295002 0.820108 0.820108C0.295002 1.34521 0 2.05741 0 2.80002V3.08143L8.40007 7.60487L16.8001 3.08283V2.80002C16.8001 2.05741 16.5051 1.34521 15.98 0.820108C15.4549 0.295002 14.7427 0 14.0001 0H2.80002Z" fill="white"/>
<path d="M16.8001 4.67151L8.73188 9.01575C8.6299 9.07064 8.51589 9.09938 8.40007 9.09938C8.28426 9.09938 8.17025 9.07064 8.06827 9.01575L0 4.67151V11.1998C0 11.9424 0.295002 12.6546 0.820108 13.1797C1.34521 13.7048 2.05741 13.9998 2.80002 13.9998H14.0001C14.7427 13.9998 15.4549 13.7048 15.98 13.1797C16.5051 12.6546 16.8001 11.9424 16.8001 11.1998V4.67151Z" fill="white"/>
</svg>
